<svg t="1704698201249" class="icon" viewBox="0 0 1024 1024" version="1.1"
    xmlns="http://www.w3.org/2000/svg" p-id="9074" width="200" height="200">
    <path fill="currentColor" d="M991.09,120.88C971.377,120.88,958.18,133.664,958.18,152.759L958.18,890.498C958.18,922.377,925.269,954.093,892.526,954.093L133.148,954.094C93.7228,954.094,64.2999,922.215,64.2999,890.498L64.2999,820.592C64.2999,788.713,87.2076,769.78,126.633,769.78L859.95,769.78C879.663,769.78,892.86,756.996,892.86,737.901L892.86,114.569C892.86,44.6625,840.404,0,761.554,0L144.504,0C72.3357,0,0,38.1901,0,114.569L0,915.904C6.51522,973.189,65.6533,1017.69,124.791,1024L892.693,1024C964.862,1024,1024,966.716,1024,903.12L1024,152.759C1024,139.975,1010.8,120.88,991.09,120.88ZM694.013,201.377C694.013,270.435,642.968,292.024,617.465,292.024C592.079,292.024,542.486,273.866,543.027,272.612L497.323,339.494C504.759,375.096,512.208,411.797,518.584,442.009C526.033,476.538,535.603,504.591,546.233,526.167Q561.119,546.67,605.774,520.776C611.09,518.618,617.465,516.459,623.841,516.459C647.236,516.459,665.303,535.888,665.303,558.55C665.223,575.401,655.229,590.624,639.8,597.398Q577.052,633,523.899,633C472.868,633,433.527,603.862,416.533,555.318C412.279,540.219,404.842,506.763,396.333,463.598Q366.562,514.325,339.974,561.795C313.41,608.192,283.639,629.781,253.869,629.781C237.923,629.781,189.013,625.463,189.013,556.404C189.013,487.345,240.057,465.757,265.56,465.757Q291.076,465.757,341.047,484.101L385.702,419.36C375.764,370.398,364.062,321.81,350.617,273.693C347.422,262.898,344.241,253.19,341.047,244.554Q338.119,237.256,332.723,233.614Q316.575,222.713,278.324,244.554C272.996,246.713,266.62,248.872,260.245,248.872C236.85,248.872,218.783,229.442,218.783,206.78C218.696,192.69,225.426,179.427,236.85,171.178Q298.499,131.232,366.55,131.232C433.527,131.232,466.492,192.741,471.807,221.88C473.928,233.747,479.243,260.714,485.632,294.17L486.692,294.17Q516.463,243.456,543.052,195.986C569.615,149.589,599.386,128,629.156,128C645.102,128,694.013,132.318,694.013,201.377ZM866.298,833.377L146.178,833.377C126.465,833.377,113.268,846.161,113.268,865.256C113.268,884.351,126.465,897.135,146.178,897.135L866.298,897.135C886.011,897.135,899.208,884.351,899.208,865.256C899.208,845.999,886.011,833.377,866.298,833.377Z"/>
</svg>