<svg t="1704698201249" class="icon" viewBox="0 0 1024 1024" version="1.1"
    xmlns="http://www.w3.org/2000/svg" p-id="9074" width="200" height="200">
    <path fill="currentColor" d="M1017.68009059906,496.6790295639038C1017.68009059906,496.6790295639038,527.3210905990601,6.322489563903809,527.3210905990601,6.322489563903809C518.89109059906,-2.1074604360961913,505.0980905990601,-2.1074604360961913,496.67909059906003,6.322489563903809C496.67909059906003,6.322489563903809,6.322550599060059,496.6790295639038,6.322550599060059,496.6790295639038C-2.1073994009399413,505.1090295639038,-2.1073994009399413,518.9020295639039,6.322550599060059,527.3210295639038C6.322550599060059,527.3210295639038,496.67909059906003,1017.6800295639038,496.67909059906003,1017.6800295639038C505.10909059906004,1026.1100295639037,518.9020905990601,1026.1100295639037,527.3210905990601,1017.6800295639038C527.3210905990601,1017.6800295639038,1017.68009059906,527.3210295639038,1017.68009059906,527.3210295639038C1026.11009059906,518.8910295639038,1026.11009059906,505.1090295639038,1017.68009059906,496.6790295639038C1017.68009059906,496.6790295639038,1017.68009059906,496.6790295639038,1017.68009059906,496.6790295639038ZM737.03009059906,698.7160295639038C747.6050905990601,709.2910295639039,747.6050905990601,726.4440295639038,737.03009059906,737.0300295639038C731.74209059906,742.3170295639038,724.8070905990601,744.9610295639038,717.8730905990601,744.9610295639038C710.93809059906,744.9610295639038,704.0030905990601,742.3170295639038,698.7160905990601,737.0300295639038C698.7160905990601,737.0300295639038,512.0000905990601,550.3140295639038,512.0000905990601,550.3140295639038C512.0000905990601,550.3140295639038,325.28409059906005,737.0300295639038,325.28409059906005,737.0300295639038C319.9970905990601,742.3170295639038,313.06209059906007,744.9610295639038,306.12709059906007,744.9610295639038C299.19309059906004,744.9610295639038,292.25809059906004,742.3170295639038,286.9700905990601,737.0300295639038C276.39509059906004,726.4540295639038,276.39509059906004,709.3020295639038,286.9700905990601,698.7160295639038C286.9700905990601,698.7160295639038,473.68609059906004,512.0000295639038,473.68609059906004,512.0000295639038C473.68609059906004,512.0000295639038,286.9700905990601,325.2840295639038,286.9700905990601,325.2840295639038C276.39509059906004,314.7090295639038,276.39509059906004,297.5560295639038,286.9700905990601,286.97002956390384C297.54609059906005,276.3950295639038,314.69809059906004,276.3950295639038,325.28409059906005,286.97002956390384C325.28409059906005,286.97002956390384,512.0000905990601,473.6860295639038,512.0000905990601,473.6860295639038C512.0000905990601,473.6860295639038,698.7160905990601,286.97002956390384,698.7160905990601,286.97002956390384C709.2910905990601,276.3950295639038,726.44409059906,276.3950295639038,737.03009059906,286.97002956390384C747.6050905990601,297.5460295639038,747.6050905990601,314.6980295639038,737.03009059906,325.2840295639038C737.03009059906,325.2840295639038,550.31409059906,512.0000295639038,550.31409059906,512.0000295639038C550.31409059906,512.0000295639038,737.03009059906,698.7160295639038,737.03009059906,698.7160295639038C737.03009059906,698.7160295639038,737.03009059906,698.7160295639038,737.03009059906,698.7160295639038Z"/>
</svg>