<svg t="1704700378634" class="icon" viewBox="0 0 1024 1024" version="1.1" xmlns="http://www.w3.org/2000/svg" p-id="24195" width="200" height="200"><path fill="currentColor" d="M511.999817 0q-12.580567 0-25.124562 0.621714-12.543996 0.621714-25.05142 1.828571-12.507424 1.243428-24.941705 3.10857-12.434281 1.828571-24.758849 4.278856t-24.502848 5.485712q-12.214853 3.071999-24.246848 6.729141-12.031996 3.657142-23.844563 7.862854-11.849139 4.242284-23.478849 9.069711-11.593139 4.790855-22.966849 10.166853-11.337139 5.375998-22.454849 11.337139-11.081139 5.887998-21.833135 12.361139-10.788568 6.436569-21.247993 13.421709t-20.553135 14.482281q-10.093711 7.49714-19.821707 15.469708-9.691425 7.972569-19.017136 16.420566-9.28914 8.411426-18.175994 17.334851-8.923425 8.886854-17.334851 18.175994-8.447997 9.325711-16.457137 19.017136-7.935997 9.727997-15.433137 19.821707t-14.482281 20.553135q-6.948569 10.459425-13.421709 21.211421-6.473141 10.788568-12.39771 21.869707-5.924569 11.11771-11.300568 22.454849t-10.166853 22.966849q-4.827427 11.62971-9.069711 23.478849-4.205713 11.812567-7.862854 23.844563-3.657142 12.031996-6.692569 24.210277-3.071999 12.214853-5.522284 24.502848-2.450285 12.361138-4.278856 24.79542t-3.10857 24.941705q-1.206857 12.507424-1.828571 25.05142T0 511.999817q0 12.580567 0.621714 25.124563 0.621714 12.543996 1.828571 25.051419 1.243428 12.507424 3.10857 24.941706 1.828571 12.434281 4.278856 24.758848t5.485712 24.502848q3.071999 12.214853 6.729141 24.246849 3.657142 12.031996 7.862854 23.844563 4.242284 11.849139 9.069711 23.478848 4.790855 11.593139 10.166853 22.966849 5.375998 11.337139 11.337139 22.45485 5.887998 11.081139 12.361139 21.833135 6.436569 10.788568 13.421709 21.247992t14.482281 20.553135q7.49714 10.093711 15.469708 19.785136 7.972569 9.727997 16.420566 19.017136 8.411426 9.362282 17.334851 18.212565 8.886854 8.886854 18.175994 17.334851 9.325711 8.447997 19.017136 16.457137 9.727997 7.935997 19.821707 15.433138t20.553135 14.48228q10.459425 6.948569 21.211421 13.42171 10.788568 6.473141 21.869707 12.397709 11.11771 5.924569 22.454849 11.300568t22.966849 10.166853q11.62971 4.827427 23.478849 9.069711 11.812567 4.205713 23.844563 7.862855 12.031996 3.657142 24.210277 6.692569 12.214853 3.071999 24.502848 5.522284 12.361138 2.450285 24.79542 4.278855t24.941705 3.10857q12.507424 1.206857 25.05142 1.828571T511.999817 1023.999634q12.580567 0 25.124563-0.621714 12.543996-0.621714 25.051419-1.828571 12.507424-1.243428 24.941706-3.071998 12.434281-1.865142 24.758848-4.315427t24.502848-5.485713q12.214853-3.071999 24.246849-6.72914 12.031996-3.657142 23.844563-7.862855 11.849139-4.242284 23.478848-9.069711 11.593139-4.790855 22.966849-10.166853 11.337139-5.375998 22.45485-11.337139 11.081139-5.887998 21.833135-12.361138 10.788568-6.473141 21.247992-13.42171 10.459425-6.98514 20.553135-14.48228 10.093711-7.49714 19.785136-15.469709 9.727997-7.972569 19.017136-16.420566 9.362282-8.411426 18.212565-17.334851 8.886854-8.850283 17.334851-18.175993 8.447997-9.325711 16.457137-19.017136 7.935997-9.727997 15.433138-19.821708t14.48228-20.553135q6.948569-10.459425 13.42171-21.211421 6.473141-10.788568 12.397709-21.869706 5.924569-11.081139 11.300568-22.45485 5.375998-11.337139 10.166853-22.966849 4.827427-11.62971 9.069711-23.478848 4.205713-11.812567 7.862855-23.844563 3.657142-12.031996 6.692569-24.210277 3.071999-12.214853 5.522284-24.502849 2.450285-12.361138 4.278855-24.795419t3.10857-24.941706q1.206857-12.507424 1.828571-25.051419T1023.999634 511.999817q0-12.580567-0.621714-25.124562-0.621714-12.543996-1.828571-25.05142-1.243428-12.507424-3.071998-24.941705-1.865142-12.434281-4.315427-24.758849t-5.485713-24.502848q-3.071999-12.214853-6.72914-24.246848-3.657142-12.031996-7.862855-23.844563-4.242284-11.849139-9.069711-23.478849-4.790855-11.593139-10.166853-22.966849-5.375998-11.337139-11.337139-22.454849-5.887998-11.081139-12.361138-21.833135-6.473141-10.788568-13.42171-21.247993-6.98514-10.459425-14.48228-20.553135-7.49714-10.093711-15.469709-19.821707-7.972569-9.691425-16.420566-19.017136-8.411426-9.28914-17.334851-18.175994-8.850283-8.923425-18.175993-17.334851-9.325711-8.447997-19.017136-16.457137-9.727997-7.935997-19.821708-15.433137t-20.553135-14.482281q-10.459425-6.948569-21.211421-13.421709-10.788568-6.473141-21.869706-12.39771-11.081139-5.924569-22.45485-11.300568-11.337139-5.375998-22.966849-10.166853-11.62971-4.827427-23.478848-9.069711-11.812567-4.205713-23.844563-7.862854-12.031996-3.657142-24.210277-6.692569-12.214853-3.071999-24.502849-5.522284-12.361138-2.450285-24.795419-4.278856t-24.941706-3.10857q-12.507424-1.206857-25.051419-1.828571T511.999817 0zM330.605596 403.711856A73.142831 73.142831 0 0 1 403.675284 329.14274H621.714064a73.142831 73.142831 0 0 1 73.142831 73.142831v219.428493a73.142831 73.142831 0 0 1-73.142831 73.142831h-213.759924a73.142831 73.142831 0 0 1-73.142831-71.716546l-4.242284-219.428493z" p-id="24196"></path></svg>