<svg t="1704698201249" class="icon" viewBox="0 0 1024 1024" version="1.1"
    xmlns="http://www.w3.org/2000/svg" p-id="9074" width="200" height="200">
    <path fill="currentColor" d="M448.81497713766606,832.975C448.81497713766606,832.975,396.1579771376661,832.975,396.1579771376661,832.975C244.27097713766605,808.101,127.99997713766606,675.842,127.99997713766606,516.914C127.99997713766606,463.686,141.67297713766607,413.856,164.74797713766606,369.681C164.74797713766606,369.681,204.03197713766608,424.108,204.03197713766608,424.108C232.61597713766608,463.732,294.28397713766606,452.685,307.37997713766606,405.616C307.37997713766606,405.616,338.66697713766604,293.105,338.66697713766604,293.105C338.66697713766604,293.105,381.82297713766604,137.9391,381.82297713766604,137.9391C392.1719771376661,100.7375,364.19497713766606,63.9389823,325.62097713766605,64.000998361C325.62097713766605,64.000998361,173.48697713766606,64.212058,173.48697713766606,64.212058C173.48697713766606,64.212058,58.266077137666066,64.380053,58.266077137666066,64.380053C10.792577137666065,64.456076,-16.670322862333936,118.2735,11.131677137666065,156.7954C11.131677137666065,156.7954,83.40827713766606,256.98400000000004,83.40827713766606,256.98400000000004C31.047377137666064,330.306,0.0014637476660646638,419.89,0.0014637476660646638,516.914C0.0014637476660646638,741.064,164.36897713766606,926.807,379.04897713766604,959.985C384.91697713766604,960.888,390.60097713766606,960.657,396.15697713766605,959.933C396.15697713766605,959.933,396.15697713766605,960.708,396.15697713766605,960.708C396.15697713766605,960.708,448.81297713766605,960.708,448.81297713766605,960.708C483.70297713766604,960.708,511.9989771376661,932.399,511.9989771376661,897.484C511.9989771376661,897.484,511.9989771376661,896.196,511.9989771376661,896.196C511.99997713766606,861.284,483.70497713766605,832.975,448.81497713766606,832.975C448.81497713766606,832.975,448.81497713766606,832.975,448.81497713766606,832.975ZM1012.8699771376661,867.916C1012.8699771376661,867.916,940.5849771376661,767.745,940.5849771376661,767.745C992.947977137666,694.411,1023.9899771376661,604.813,1023.9899771376661,507.802C1023.9899771376661,283.653,859.6379771376661,97.90270000000001,644.9469771376661,64.718205C639.083977137666,63.813947,633.3929771376661,64.0510167,627.837977137666,64.788221C627.837977137666,64.788221,627.837977137666,64,627.837977137666,64C627.837977137666,64,575.1869771376661,64,575.1869771376661,64C540.2909771376661,64,512.000977137666,92.3021,512.000977137666,127.2291C512.000977137666,127.2291,512.000977137666,128.5104,512.000977137666,128.5104C512.000977137666,163.4374,540.289977137666,191.753,575.1869771376661,191.753C575.1869771376661,191.753,627.837977137666,191.753,627.837977137666,191.753C779.7239771376661,216.615,896.000977137666,348.88,896.000977137666,507.801C896.000977137666,561.017,882.322977137666,610.854,859.2549771376661,655.035C859.2549771376661,655.035,819.9759771376661,600.582,819.9759771376661,600.582C791.385977137666,560.983,729.712977137666,572.017,716.620977137666,619.095C716.620977137666,619.095,685.333977137666,731.599,685.333977137666,731.599C685.333977137666,731.599,642.1729771376661,886.79,642.1729771376661,886.79C631.8249771376661,923.974,659.8009771376661,960.766,698.3749771376661,960.708C698.3749771376661,960.708,850.509977137666,960.503,850.509977137666,960.503C850.509977137666,960.503,965.735977137666,960.33,965.735977137666,960.33C1013.2099771376661,960.261,1040.6699771376661,906.433,1012.8699771376661,867.916C1012.8699771376661,867.916,1012.8699771376661,867.916,1012.8699771376661,867.916Z"/>
</svg>