<svg t="1704698201249" class="icon" viewBox="0 0 1024 1024" version="1.1"
    xmlns="http://www.w3.org/2000/svg" p-id="9074" width="200" height="200">
    <path fill="currentColor" d="M63.99950051475433,1024.0000041180347C55.358100514754334,1024.0000041180347,46.97730051475433,1022.3100041180346,39.08790051475433,1018.9700041180347C31.469900514754332,1015.7400041180347,24.625400514754332,1011.1300041180347,18.744800514754335,1005.2500041180347C12.866900514754333,999.3650041180347,8.252560514754334,992.5180041180347,5.030100514754333,984.8930041180347C1.6929005147543335,977.0000041180347,5.147543333805515e-7,968.6150041180347,5.147543333805515e-7,959.9690041180347C5.147543333805515e-7,959.9690041180347,5.147543333805515e-7,192.09500411803467,5.147543333805515e-7,192.09500411803467C5.147543333805515e-7,183.44800411803467,1.6929005147543335,175.06100411803467,5.030100514754333,167.17100411803466C8.252560514754334,159.54600411803466,12.866900514754333,152.69700411803467,18.744800514754335,146.81700411803467C24.62270051475433,140.93600411803467,31.46720051475433,136.31900411803466,39.08790051475433,133.09500411803467C46.97730051475433,129.75500411803466,55.358100514754334,128.06300411803466,63.99950051475433,128.06300411803466C63.99950051475433,128.06300411803466,204.80100051475432,128.06300411803466,204.80100051475432,128.06300411803466C214.43300051475433,147.31900411803466,229.20200051475433,163.47800411803468,247.51200051475433,174.79700411803466C265.8230005147543,186.11300411803467,286.87500051475433,192.09500411803467,308.39400051475434,192.09500411803467C308.39400051475434,192.09500411803467,308.4810005147543,192.09500411803467,308.4810005147543,192.09500411803467C308.4810005147543,192.09500411803467,716.1620005147544,192.09500411803467,716.1620005147544,192.09500411803467C737.5850005147544,191.99200411803466,758.5290005147543,185.96000411803468,776.7280005147543,174.65100411803468C794.9280005147543,163.34000411803467,809.6150005147543,147.23000411803466,819.2020005147543,128.06300411803466C819.2020005147543,128.06300411803466,960.0020005147543,128.06300411803466,960.0020005147543,128.06300411803466C960.0020005147543,128.06300411803466,960.0130005147544,128.06300411803466,960.0130005147544,128.06300411803466C968.6470005147544,128.06300411803466,977.0250005147543,129.75500411803466,984.9120005147544,133.09400411803466C992.5330005147543,136.31800411803468,999.3770005147543,140.93400411803466,1005.2600005147543,146.81500411803466C1011.1300005147543,152.69600411803466,1015.7500005147543,159.54400411803468,1018.9700005147544,167.17000411803465C1022.3100005147543,175.06000411803467,1024.0000005147544,183.44600411803466,1024.0000005147544,192.09300411803466C1024.0000005147544,192.09300411803466,1024.0000005147544,959.9690041180347,1024.0000005147544,959.9690041180347C1024.0000005147544,968.6150041180347,1022.3100005147543,977.0000041180347,1018.9700005147544,984.8930041180347C1015.7500005147543,992.5180041180347,1011.1300005147543,999.3650041180347,1005.2600005147543,1005.2500041180347C999.3750005147543,1011.1300041180347,992.5300005147543,1015.7400041180347,984.9120005147544,1018.9700041180347C977.0230005147544,1022.3100041180346,968.6420005147544,1024.0000041180347,960.0010005147543,1024.0000041180347C960.0010005147543,1024.0000041180347,63.99950051475433,1024.0000041180347,63.99950051475433,1024.0000041180347C63.99950051475433,1024.0000041180347,63.99950051475433,1024.0000041180347,63.99950051475433,1024.0000041180347ZM523.2370005147543,784.2200041180347C523.2370005147543,784.2200041180347,632.7470005147543,847.0650041180347,632.7470005147543,847.0650041180347C637.3350005147544,849.6920041180347,642.2430005147544,851.0240041180347,647.3310005147544,851.0240041180347C655.8740005147544,851.0240041180347,664.0440005147543,847.2330041180346,669.7480005147544,840.6250041180347C675.4430005147543,834.0260041180346,677.8680005147544,825.5520041180347,676.5750005147544,816.7620041180346C676.5750005147544,816.7620041180346,656.6110005147543,682.8060041180347,656.6110005147543,682.8060041180347C655.9360005147544,678.1880041180347,656.3420005147543,673.4120041180347,657.7870005147544,668.9960041180346C659.2330005147543,664.5790041180346,661.7220005147543,660.5040041180347,664.9860005147543,657.2100041180347C664.9860005147543,657.2100041180347,759.2370005147543,562.9140041180347,759.2370005147543,562.9140041180347C763.3100005147543,558.8390041180347,766.1000005147544,553.7900041180346,767.3070005147543,548.3130041180347C768.4420005147543,543.1640041180347,768.1800005147543,537.7420041180346,766.5490005147543,532.6290041180347C764.9300005147543,527.5520041180347,762.0310005147543,523.0140041180347,758.1670005147544,519.5060041180346C754.0570005147543,515.7760041180346,748.9120005147544,513.3010041180347,743.2890005147543,512.3500041180347C743.2890005147543,512.3500041180347,617.3160005147544,491.1150041180347,617.3160005147544,491.1150041180347C612.5670005147543,490.32800411803464,608.0300005147543,488.34000411803464,604.1940005147543,485.36800411803466C600.3700005147543,482.40400411803466,597.2890005147543,478.49600411803465,595.2880005147543,474.0690041180347C595.2880005147543,474.0690041180347,541.3650005147543,354.5210041180347,541.3650005147543,354.5210041180347C536.5200005147543,343.74800411803466,526.2240005147544,337.0550041180347,514.4940005147544,337.0550041180347C509.0990005147543,337.0550041180347,503.84300051475435,338.49800411803466,499.29500051475435,341.2280041180347C494.4450005147543,344.14000411803465,490.52400051475433,348.4780041180347,487.95800051475436,353.77400411803467C487.95800051475436,353.77400411803467,430.9380005147543,471.60100411803467,430.9380005147543,471.60100411803467C428.8280005147543,475.96500411803464,425.63600051475436,479.7880041180347,421.70900051475434,482.6560041180347C417.78300051475435,485.52400411803467,413.1790005147543,487.39700411803466,408.3930005147543,488.0740041180347C408.3930005147543,488.0740041180347,282.01900051475434,505.57800411803464,282.01900051475434,505.57800411803464C276.38000051475433,506.36600411803465,271.1760005147543,508.6940041180347,266.9650005147543,512.3100041180346C263.00700051475434,515.7100041180347,259.98300051475434,520.1680041180347,258.22100051475434,525.2030041180346C256.44900051475435,530.2710041180346,256.03600051475433,535.6860041180347,257.0270005147543,540.8640041180347C258.08100051475435,546.3750041180347,260.73200051475436,551.4990041180347,264.6950005147543,555.6820041180347C264.6950005147543,555.6820041180347,356.4210005147543,652.7910041180347,356.4210005147543,652.7910041180347C359.60700051475436,656.1740041180346,361.99200051475435,660.3100041180346,363.31900051475435,664.7490041180347C364.6500005147543,669.2010041180347,364.92300051475434,673.9760041180347,364.10700051475436,678.5600041180346C364.10700051475436,678.5600041180346,340.64600051475435,811.9980041180347,340.64600051475435,811.9980041180347C339.08100051475435,820.8890041180347,341.36000051475435,829.5300041180346,347.06200051475435,836.3270041180347C349.8160005147543,839.6100041180347,353.3110005147543,842.3220041180347,357.17000051475435,844.1710041180347C361.11000051475435,846.0590041180346,365.4570005147543,847.0570041180347,369.74500051475434,847.0570041180347C374.54800051475434,847.0570041180347,379.21400051475433,845.8620041180346,383.61200051475436,843.5060041180346C383.61200051475436,843.5060041180346,494.78500051475436,783.8180041180347,494.78500051475436,783.8180041180347C499.04000051475435,781.5260041180346,503.83400051475434,780.3140041180346,508.64800051475436,780.3140041180346C513.7520005147543,780.3140041180346,518.7970005147544,781.6650041180346,523.2370005147543,784.2200041180347C523.2370005147543,784.2200041180347,523.2370005147543,784.2200041180347,523.2370005147543,784.2200041180347ZM320.25000051475433,127.56200411803466C285.0420005147543,127.56200411803466,256.50000051475433,99.00590411803466,256.50000051475433,63.780804118034666C256.50000051475433,28.555604118034665,285.0420005147543,0.000004118034667044412,320.25000051475433,0.000004118034667044412C320.25000051475433,0.000004118034667044412,704.2510005147543,0.000004118034667044412,704.2510005147543,0.000004118034667044412C739.4590005147543,0.000004118034667044412,768.0010005147543,28.555604118034665,768.0010005147543,63.780804118034666C768.0010005147543,99.00590411803466,739.4590005147543,127.56200411803466,704.2510005147543,127.56200411803466C704.2510005147543,127.56200411803466,320.25000051475433,127.56200411803466,320.25000051475433,127.56200411803466C320.25000051475433,127.56200411803466,320.25000051475433,127.56200411803466,320.25000051475433,127.56200411803466Z"/>
</svg>