<svg t="1704698201249" class="icon" viewBox="0 0 1024 1024" version="1.1"
    xmlns="http://www.w3.org/2000/svg" p-id="9074" width="200" height="200">
    <path fill="currentColor" d="M910.510022070315,1024.0000032714843C910.510022070315,1024.0000032714843,113.49002207031502,1024.0000032714843,113.49002207031502,1024.0000032714843C98.16202207031503,1024.0000032714843,83.29562207031502,1021.0000032714843,69.30332207031502,1015.0800032714843C62.577722070315026,1012.2400032714843,56.091622070315026,1008.7100032714843,50.025022070315025,1004.6100032714843C44.01532207031503,1000.5500032714842,38.364722070315025,995.8890032714843,33.230522070315025,990.7520032714842C28.095722070315027,985.6150032714843,23.434222070315027,979.9610032714843,19.375422070315025,973.9490032714842C15.277722070315026,967.8790032714843,11.758222070315027,961.3900032714843,8.914912070315026,954.6610032714842C2.9994320703150263,940.6620032714843,0.000022070315026212484,925.7870032714843,0.000022070315026212484,910.4520032714843C0.000022070315026212484,910.4520032714843,0.000022070315026212484,113.54700327148427,0.000022070315026212484,113.54700327148427C0.000022070315026212484,98.21170327148427,2.9994320703150263,83.33790327148428,8.914912070315026,69.33880327148428C11.758222070315027,62.60990327148428,15.277722070315026,56.120503271484274,19.375422070315025,50.050703271484274C23.434022070315027,44.03860327148428,28.095622070315027,38.385303271484275,33.230522070315025,33.247703271484276C38.36542207031503,28.110203271484274,44.015822070315025,23.446403271484275,50.025022070315025,19.385503271484275C56.09172207031503,15.285603271484275,62.577922070315026,11.764303271484275,69.30332207031502,8.919563271484275C83.29552207031503,3.0009732714842747,98.16202207031503,0.000003271484274591785,113.49002207031502,0.000003271484274591785C113.49002207031502,0.000003271484274591785,129.81402207031502,0.000003271484274591785,129.81402207031502,0.000003271484274591785C129.81402207031502,0.000003271484274591785,129.81402207031502,332.6050032714843,129.81402207031502,332.6050032714843C129.81402207031502,344.7260032714843,134.55302207031502,356.14200327148427,143.158022070315,364.75100327148425C143.158022070315,364.75100327148425,265.976022070315,241.87100327148428,265.976022070315,241.87100327148428C265.976022070315,241.87100327148428,388.794022070315,364.75100327148425,388.794022070315,364.75100327148425C392.950022070315,360.59200327148426,396.22502207031505,355.74100327148426,398.52602207031504,350.33000327148426C400.92202207031505,344.6970032714843,402.137022070315,338.7330032714843,402.137022070315,332.6050032714843C402.137022070315,332.6050032714843,402.137022070315,0.000003271484274591785,402.137022070315,0.000003271484274591785C402.137022070315,0.000003271484274591785,910.510022070315,0.000003271484274591785,910.510022070315,0.000003271484274591785C925.838022070315,0.000003271484274591785,940.704022070315,3.0009732714842747,954.696022070315,8.919563271484275C961.422022070315,11.764303271484275,967.908022070315,15.285603271484275,973.9740220703151,19.385503271484275C979.9840220703151,23.446403271484275,985.634022070315,28.110203271484274,990.769022070315,33.247703271484276C995.904022070315,38.385103271484276,1000.5700220703151,44.038303271484274,1004.620022070315,50.050703271484274C1008.720022070315,56.12090327148427,1012.240022070315,62.61030327148428,1015.0800220703151,69.33880327148428C1021.000022070315,83.33790327148428,1024.000022070315,98.21160327148428,1024.000022070315,113.54700327148427C1024.000022070315,113.54700327148427,1024.000022070315,910.4520032714843,1024.000022070315,910.4520032714843C1024.000022070315,925.7880032714843,1021.000022070315,940.6620032714843,1015.0800220703151,954.6610032714842C1012.240022070315,961.3900032714843,1008.720022070315,967.8790032714843,1004.620022070315,973.9490032714842C1000.5700220703151,979.9620032714843,995.904022070315,985.6150032714843,990.769022070315,990.7520032714842C985.635022070315,995.8890032714843,979.9840220703151,1000.5500032714842,973.9740220703151,1004.6100032714843C967.908022070315,1008.7100032714843,961.422022070315,1012.2400032714843,954.696022070315,1015.0800032714843C940.704022070315,1021.0000032714843,925.838022070315,1024.0000032714843,910.510022070315,1024.0000032714843C910.510022070315,1024.0000032714843,910.510022070315,1024.0000032714843,910.510022070315,1024.0000032714843ZM186.65302207031502,724.5770032714843C155.20502207031504,724.5770032714843,129.62002207031503,750.1620032714843,129.62002207031503,781.6100032714843C129.62002207031503,813.0580032714843,155.20502207031504,838.6430032714843,186.65302207031502,838.6430032714843C186.65302207031502,838.6430032714843,837.347022070315,838.6430032714843,837.347022070315,838.6430032714843C868.795022070315,838.6430032714843,894.380022070315,813.0580032714843,894.380022070315,781.6100032714843C894.380022070315,750.1620032714843,868.795022070315,724.5770032714843,837.347022070315,724.5770032714843C837.347022070315,724.5770032714843,186.65302207031502,724.5770032714843,186.65302207031502,724.5770032714843C186.65302207031502,724.5770032714843,186.65302207031502,724.5770032714843,186.65302207031502,724.5770032714843ZM186.65302207031502,454.96700327148426C155.20502207031504,454.96700327148426,129.62002207031503,480.5520032714843,129.62002207031503,512.0000032714843C129.62002207031503,543.4480032714843,155.20502207031504,569.0330032714843,186.65302207031502,569.0330032714843C186.65302207031502,569.0330032714843,837.347022070315,569.0330032714843,837.347022070315,569.0330032714843C868.795022070315,569.0330032714843,894.380022070315,543.4480032714843,894.380022070315,512.0000032714843C894.380022070315,480.5520032714843,868.795022070315,454.96700327148426,837.347022070315,454.96700327148426C837.347022070315,454.96700327148426,186.65302207031502,454.96700327148426,186.65302207031502,454.96700327148426C186.65302207031502,454.96700327148426,186.65302207031502,454.96700327148426,186.65302207031502,454.96700327148426ZM569.033022070315,185.35700327148427C537.5850220703151,185.35700327148427,512.000022070315,210.94200327148428,512.000022070315,242.39000327148426C512.000022070315,273.8380032714843,537.5850220703151,299.4230032714843,569.033022070315,299.4230032714843C569.033022070315,299.4230032714843,837.347022070315,299.4230032714843,837.347022070315,299.4230032714843C868.795022070315,299.4230032714843,894.380022070315,273.8380032714843,894.380022070315,242.39000327148426C894.380022070315,210.94200327148428,868.795022070315,185.35700327148427,837.347022070315,185.35700327148427C837.347022070315,185.35700327148427,569.033022070315,185.35700327148427,569.033022070315,185.35700327148427C569.033022070315,185.35700327148427,569.033022070315,185.35700327148427,569.033022070315,185.35700327148427Z"/>
</svg>