<svg t="1704698201249" class="icon" viewBox="0 0 1024 1024" version="1.1"
    xmlns="http://www.w3.org/2000/svg" p-id="9074" width="200" height="200">
    <path fill="currentColor" d="M772.003,1.3920666375854064e-11C784.336,-0.0000038146883052836242,796.174,4.9030400000116945,804.903,13.630700000011695C804.903,13.630700000011695,1010.36,219.18300000001167,1010.36,219.18300000001167C1019.09,227.91000000001168,1024,239.7470000000117,1024,252.09000000001168C1024,252.09000000001168,1024,744.7270000000117,1024,744.7270000000117C1024,796.1400000000117,982.322,837.8180000000117,930.909,837.8180000000117C930.909,837.8180000000117,744.727,837.8180000000117,744.727,837.8180000000117C744.727,837.8180000000117,744.727,930.9090000000117,744.727,930.9090000000117C744.727,982.3220000000117,703.049,1024.0000000000116,651.636,1024.0000000000116C651.636,1024.0000000000116,93.0909,1024.0000000000116,93.0909,1024.0000000000116C41.6782,1024.0000000000116,0,982.3220000000117,0,930.9090000000117C0,930.9090000000117,0,279.27300000001173,0,279.27300000001173C0,227.8600000000117,41.6782,186.18200000001167,93.0909,186.18200000001167C93.0909,186.18200000001167,279.273,186.18200000001167,279.273,186.18200000001167C279.273,186.18200000001167,279.273,93.0909000000117,279.273,93.0909000000117C279.273,41.67820000001169,320.951,-0.0000076293783052836245,372.364,1.3920666375854064e-11C372.364,1.3920666375854064e-11,772.003,1.3920666375854064e-11,772.003,1.3920666375854064e-11C772.003,1.3920666375854064e-11,772.003,1.3920666375854064e-11,772.003,1.3920666375854064e-11ZM512,744.7270000000117C512,744.7270000000117,232.727,744.7270000000117,232.727,744.7270000000117C207.021,744.7270000000117,186.181,765.5660000000117,186.181,791.2730000000117C186.181,816.9790000000118,207.021,837.8180000000117,232.727,837.8180000000117C232.727,837.8180000000117,512,837.8180000000117,512,837.8180000000117C537.706,837.8180000000117,558.545,816.9790000000118,558.545,791.2730000000117C558.545,765.5660000000117,537.706,744.7270000000117,512,744.7270000000117C512,744.7270000000117,512,744.7270000000117,512,744.7270000000117ZM698.182,93.09100000001169C698.182,93.09100000001169,372.364,93.09100000001169,372.364,93.09100000001169C372.364,93.09100000001169,372.364,186.18200000001167,372.364,186.18200000001167C372.364,186.18200000001167,492.731,186.18200000001167,492.731,186.18200000001167C505.064,186.18200000001167,516.903,191.0850000000117,525.631,199.81300000001167C525.631,199.81300000001167,731.09,405.3650000000117,731.09,405.3650000000117C739.82,414.0920000000117,744.725,425.9290000000117,744.728,438.2720000000117C744.728,438.2720000000117,744.728,744.7270000000117,744.728,744.7270000000117C744.728,744.7270000000117,930.91,744.7270000000117,930.91,744.7270000000117C930.91,744.7270000000117,930.91,325.8180000000117,930.91,325.8180000000117C930.91,325.8180000000117,791.274,325.8180000000117,791.274,325.8180000000117C742.559,325.8340000000117,702.07,288.2870000000117,698.416,239.70900000001168C698.416,239.70900000001168,698.182,232.72700000001169,698.182,232.72700000001169C698.182,232.72700000001169,698.182,93.0909000000117,698.182,93.0909000000117C698.182,93.0909000000117,698.182,93.09100000001169,698.182,93.09100000001169ZM512,558.5460000000118C512,558.5460000000118,232.727,558.5460000000118,232.727,558.5460000000118C207.021,558.5460000000118,186.181,579.3850000000117,186.181,605.0920000000117C186.181,630.7980000000117,207.021,651.6370000000117,232.727,651.6370000000117C232.727,651.6370000000117,512,651.6370000000117,512,651.6370000000117C537.706,651.6370000000117,558.545,630.7980000000117,558.545,605.0920000000117C558.545,579.3850000000117,537.706,558.5460000000118,512,558.5460000000118C512,558.5460000000118,512,558.5460000000118,512,558.5460000000118ZM325.818,372.3640000000117C325.818,372.3640000000117,232.727,372.3640000000117,232.727,372.3640000000117C207.021,372.3640000000117,186.181,393.2030000000117,186.181,418.91000000001173C186.181,444.6160000000117,207.021,465.4550000000117,232.727,465.4550000000117C232.727,465.4550000000117,325.818,465.4550000000117,325.818,465.4550000000117C351.524,465.4550000000117,372.363,444.6160000000117,372.363,418.91000000001173C372.363,393.2030000000117,351.524,372.3640000000117,325.818,372.3640000000117C325.818,372.3640000000117,325.818,372.3640000000117,325.818,372.3640000000117ZM512,279.27300000001173C512,279.27300000001173,512,372.3640000000117,512,372.3640000000117C512,398.0700000000117,532.839,418.91000000001173,558.545,418.91000000001173C558.545,418.91000000001173,651.636,418.91000000001173,651.636,418.91000000001173C651.636,418.91000000001173,512,279.2740000000117,512,279.2740000000117C512,279.2740000000117,512,279.27300000001173,512,279.27300000001173ZM791.273,131.67700000001167C791.273,131.67700000001167,791.273,232.72700000001169,791.273,232.72700000001169C791.273,232.72700000001169,892.323,232.72700000001169,892.323,232.72700000001169C892.323,232.72700000001169,791.273,131.67700000001167,791.273,131.67700000001167C791.273,131.67700000001167,791.273,131.67700000001167,791.273,131.67700000001167Z"/>
</svg>