<svg t="1704698201249" class="icon" viewBox="0 0 1024 1024" version="1.1"
    xmlns="http://www.w3.org/2000/svg" p-id="9074" width="200" height="200">
    <path fill="currentColor" d="M412.794,0C640.625,0.00258062,825.559,63.9384,825.559,143.262L825.559,257.594C825.559,286.67,800.711,313.676,758.012,336.223C751.068,336.075,744.066,336,737.011,336L737,336C604.579,336.001,490.501,362.438,439.488,400.547C430.658,400.742,421.752,400.842,412.78,400.842C184.542,400.842,0,336.447,0,257.579L0,143.262C0,63.9231,184.948,0.00258,412.78,0L412.794,0ZM411,658.419L411,486.7C183.985,486.366,0,422.572,0,343.454L0,515.174C0,593.835,183.576,658.083,411,658.419ZM1023.7,491.688C1023.7,437.045,896.302,393.002,739.358,393L739.348,393C582.403,393.002,455,437.034,455,491.688L455,570.437C455,624.766,582.124,669.126,739.348,669.126C896.288,669.126,1023.7,625.092,1023.7,570.448L1023.7,491.688ZM411,915.998L411,744.292L405.965,744.281C183.565,743.029,4.07493,680.847,0.481835,603.415L0.413,601.049L0.426769,772.738C0.426769,851.351,183.767,915.585,411,915.998ZM1023.72,747.885L1023.72,629.593C1023.71,684.238,896.307,728.271,739.358,728.271C582.409,728.271,455,684.238,455,629.593L455,747.885C455,802.214,582.124,846.563,739.358,846.563C896.297,846.563,1023.72,802.529,1023.72,747.885ZM1024,925.312L1024,807.041C1023.71,861.686,896.297,905.719,739.358,905.719L734.654,905.709C581.451,904.846,457.807,862.012,455.332,808.671L455.284,807.041L455.294,925.312C455.294,979.641,582.409,1024,739.642,1024C896.591,1024,1024,979.967,1024,925.312Z"/>
</svg>