<svg t="1704698201249" class="icon" viewBox="0 0 1024 1024" version="1.1"
    xmlns="http://www.w3.org/2000/svg" p-id="9074" width="200" height="200">
    <path fill="currentColor" d="M155.579,289.269C155.579,289.269,155.636,289.326,155.636,289.326C155.636,289.326,905.402,289.326,905.402,289.326C905.402,289.326,905.402,216.869,905.402,216.869C905.402,183.921,880.099,157.2619,848.803,157.2619C848.803,157.2619,424.47,157.2619,424.47,157.2619C424.47,157.2619,339.503,68,339.503,68C339.503,68,56.599,68,56.599,68C25.3602,68,0,94.6589,0,127.47C0,127.47,0,841.884,0,841.884C0,841.884,92.6114,348.933,92.6114,348.933C92.6911,316.054,121.002,289.269,155.579,289.269C155.579,289.269,155.579,289.269,155.579,289.269ZM976.15,350.995C976.15,350.995,203.428,350.995,203.428,350.995C190.918,350.816,178.849,355.615,169.877,364.336C160.902,373.048,155.759,384.971,155.579,397.477C155.579,397.477,155.579,398.844,155.579,398.844C155.579,398.844,61.7257,910.457,61.7257,910.457C62.7625,936.022,83.9871,956.096,109.587,955.709C109.587,955.709,882.434,955.709,882.434,955.709C894.943,955.914,907.02,951.129,916.008,942.436C924.993,933.731,930.152,921.815,930.352,909.306C930.352,909.306,930.352,907.939,930.352,907.939C930.352,907.939,1024,396.258,1024,396.258C1023.24,371.149,1002.05,350.995,976.151,350.995C976.151,350.995,976.15,350.995,976.15,350.995ZM769.35,896.455C731.594,896.455,700.994,865.855,700.994,828.099C700.994,827.416,701.028,826.743,701.051,826.06C701.051,826.06,369.796,729.894,369.796,729.894C355.487,757.054,326.994,775.59,294.16,775.59C246.971,775.59,208.715,737.333,208.715,690.145C208.715,642.956,246.971,604.699,294.16,604.699C321.605,604.699,346.008,617.653,361.639,637.761C361.639,637.761,629.505,505.446,629.505,505.446C628.559,500.923,628.069,496.252,628.069,491.456C628.069,453.7,658.67,423.1,696.425,423.1C734.181,423.1,764.782,453.7,764.782,491.456C764.782,529.211,734.181,559.812,696.425,559.812C675.736,559.812,657.2,550.607,644.668,536.081C644.668,536.081,376.803,668.385,376.803,668.385C378.625,675.334,379.605,682.626,379.605,690.145C379.605,692.48,379.48,694.782,379.298,697.072C379.298,697.072,710.552,793.237,710.552,793.237C722.469,773.186,744.332,759.743,769.35,759.743C807.106,759.743,837.706,790.344,837.706,828.099C837.706,865.855,807.106,896.455,769.35,896.455C769.35,896.455,769.35,896.455,769.35,896.455Z"/>
</svg>