<svg t="1704698201249" class="icon" viewBox="0 0 1024 1024" version="1.1"
    xmlns="http://www.w3.org/2000/svg" p-id="9074" width="200" height="200">
    <path fill="currentColor" d="M921.599056670353,1024.000056670353C921.599056670353,1024.000056670353,102.40105667035293,1024.000056670353,102.40105667035293,1024.000056670353C88.57635667035294,1024.000056670353,75.16585667035294,1021.2900566703529,62.54155667035293,1015.950056670353C50.347756670352936,1010.8000566703529,39.39665667035293,1003.4100566703529,29.992356670352933,994.0070566703529C20.588056670352934,984.6030566703529,13.204656670352932,973.6510566703529,8.047156670352933,961.4580566703529C2.707506670352933,948.8330566703529,0.000056670352932997055,935.4230566703529,0.000056670352932997055,921.599056670353C0.000056670352932997055,921.599056670353,0.000056670352932997055,102.40105667035293,0.000056670352932997055,102.40105667035293C0.000056670352932997055,88.57645667035294,2.707506670352933,75.16595667035293,8.047156670352933,62.54155667035293C13.204656670352932,50.347956670352936,20.588056670352934,39.396756670352936,29.992356670352933,29.992356670352933C39.396756670352936,20.588056670352934,50.347956670352936,13.204656670352932,62.54155667035293,8.047156670352933C75.16595667035293,2.707506670352933,88.57645667035294,0.000056670352932997055,102.40105667035293,0.000056670352932997055C102.40105667035293,0.000056670352932997055,921.599056670353,0.000056670352932997055,921.599056670353,0.000056670352932997055C935.4230566703529,0.000056670352932997055,948.8330566703529,2.707506670352933,961.4580566703529,8.047156670352933C973.6510566703529,13.204656670352932,984.6030566703529,20.588056670352934,994.0070566703529,29.992356670352933C1003.4100566703529,39.39665667035293,1010.8000566703529,50.347756670352936,1015.950056670353,62.54155667035293C1021.2900566703529,75.16585667035294,1024.000056670353,88.57635667035294,1024.000056670353,102.40105667035293C1024.000056670353,102.40105667035293,1024.000056670353,921.599056670353,1024.000056670353,921.599056670353C1024.000056670353,935.4230566703529,1021.2900566703529,948.8330566703529,1015.950056670353,961.4580566703529C1010.8000566703529,973.6510566703529,1003.4100566703529,984.6030566703529,994.0070566703529,994.0070566703529C984.6030566703529,1003.4100566703529,973.6510566703529,1010.8000566703529,961.4580566703529,1015.950056670353C948.8330566703529,1021.2900566703529,935.4230566703529,1024.000056670353,921.599056670353,1024.000056670353C921.599056670353,1024.000056670353,921.599056670353,1024.000056670353,921.599056670353,1024.000056670353ZM778.239056670353,757.759056670353C755.6540566703529,757.759056670353,737.2790566703529,776.134056670353,737.2790566703529,798.719056670353C737.2790566703529,798.719056670353,737.2790566703529,901.1200566703529,737.2790566703529,901.1200566703529C737.2790566703529,923.705056670353,755.6540566703529,942.0790566703529,778.239056670353,942.0790566703529C778.239056670353,942.0790566703529,901.1200566703529,942.0790566703529,901.1200566703529,942.0790566703529C923.705056670353,942.0790566703529,942.0790566703529,923.705056670353,942.0790566703529,901.1200566703529C942.0790566703529,901.1200566703529,942.0790566703529,798.719056670353,942.0790566703529,798.719056670353C942.0790566703529,776.134056670353,923.705056670353,757.759056670353,901.1200566703529,757.759056670353C901.1200566703529,757.759056670353,778.239056670353,757.759056670353,778.239056670353,757.759056670353C778.239056670353,757.759056670353,778.239056670353,757.759056670353,778.239056670353,757.759056670353ZM368.6400566703529,757.759056670353C346.05505667035294,757.759056670353,327.68005667035294,776.134056670353,327.68005667035294,798.719056670353C327.68005667035294,798.719056670353,327.68005667035294,901.1200566703529,327.68005667035294,901.1200566703529C327.68005667035294,923.705056670353,346.05505667035294,942.0790566703529,368.6400566703529,942.0790566703529C368.6400566703529,942.0790566703529,655.360056670353,942.0790566703529,655.360056670353,942.0790566703529C677.946056670353,942.0790566703529,696.320056670353,923.705056670353,696.320056670353,901.1200566703529C696.320056670353,901.1200566703529,696.320056670353,798.719056670353,696.320056670353,798.719056670353C696.320056670353,776.134056670353,677.946056670353,757.759056670353,655.360056670353,757.759056670353C655.360056670353,757.759056670353,368.6400566703529,757.759056670353,368.6400566703529,757.759056670353C368.6400566703529,757.759056670353,368.6400566703529,757.759056670353,368.6400566703529,757.759056670353ZM122.88105667035293,757.759056670353C100.29405667035293,757.759056670353,81.91905667035293,776.134056670353,81.91905667035293,798.719056670353C81.91905667035293,798.719056670353,81.91905667035293,901.1200566703529,81.91905667035293,901.1200566703529C81.91905667035293,923.705056670353,100.29405667035293,942.0790566703529,122.88105667035293,942.0790566703529C122.88105667035293,942.0790566703529,245.75905667035292,942.0790566703529,245.75905667035292,942.0790566703529C268.34505667035296,942.0790566703529,286.72105667035294,923.705056670353,286.72105667035294,901.1200566703529C286.72105667035294,901.1200566703529,286.72105667035294,798.719056670353,286.72105667035294,798.719056670353C286.72105667035294,776.134056670353,268.34505667035296,757.759056670353,245.75905667035292,757.759056670353C245.75905667035292,757.759056670353,122.88105667035293,757.759056670353,122.88105667035293,757.759056670353C122.88105667035293,757.759056670353,122.88105667035293,757.759056670353,122.88105667035293,757.759056670353ZM778.239056670353,532.480056670353C755.6540566703529,532.480056670353,737.2790566703529,550.854056670353,737.2790566703529,573.4390566703529C737.2790566703529,573.4390566703529,737.2790566703529,675.840056670353,737.2790566703529,675.840056670353C737.2790566703529,698.4250566703529,755.6540566703529,716.8000566703529,778.239056670353,716.8000566703529C778.239056670353,716.8000566703529,901.1200566703529,716.8000566703529,901.1200566703529,716.8000566703529C923.705056670353,716.8000566703529,942.0790566703529,698.4250566703529,942.0790566703529,675.840056670353C942.0790566703529,675.840056670353,942.0790566703529,573.4390566703529,942.0790566703529,573.4390566703529C942.0790566703529,550.854056670353,923.705056670353,532.480056670353,901.1200566703529,532.480056670353C901.1200566703529,532.480056670353,778.239056670353,532.480056670353,778.239056670353,532.480056670353C778.239056670353,532.480056670353,778.239056670353,532.480056670353,778.239056670353,532.480056670353ZM368.6400566703529,532.480056670353C346.05505667035294,532.480056670353,327.68005667035294,550.854056670353,327.68005667035294,573.4390566703529C327.68005667035294,573.4390566703529,327.68005667035294,675.840056670353,327.68005667035294,675.840056670353C327.68005667035294,698.4250566703529,346.05505667035294,716.8000566703529,368.6400566703529,716.8000566703529C368.6400566703529,716.8000566703529,655.360056670353,716.8000566703529,655.360056670353,716.8000566703529C677.946056670353,716.8000566703529,696.320056670353,698.4250566703529,696.320056670353,675.840056670353C696.320056670353,675.840056670353,696.320056670353,573.4390566703529,696.320056670353,573.4390566703529C696.320056670353,550.854056670353,677.946056670353,532.480056670353,655.360056670353,532.480056670353C655.360056670353,532.480056670353,368.6400566703529,532.480056670353,368.6400566703529,532.480056670353C368.6400566703529,532.480056670353,368.6400566703529,532.480056670353,368.6400566703529,532.480056670353ZM122.88105667035293,532.480056670353C100.29405667035293,532.480056670353,81.91905667035293,550.854056670353,81.91905667035293,573.4390566703529C81.91905667035293,573.4390566703529,81.91905667035293,675.840056670353,81.91905667035293,675.840056670353C81.91905667035293,698.4250566703529,100.29405667035293,716.8000566703529,122.88105667035293,716.8000566703529C122.88105667035293,716.8000566703529,245.75905667035292,716.8000566703529,245.75905667035292,716.8000566703529C268.34505667035296,716.8000566703529,286.72105667035294,698.4250566703529,286.72105667035294,675.840056670353C286.72105667035294,675.840056670353,286.72105667035294,573.4390566703529,286.72105667035294,573.4390566703529C286.72105667035294,550.854056670353,268.34505667035296,532.480056670353,245.75905667035292,532.480056670353C245.75905667035292,532.480056670353,122.88105667035293,532.480056670353,122.88105667035293,532.480056670353C122.88105667035293,532.480056670353,122.88105667035293,532.480056670353,122.88105667035293,532.480056670353ZM778.239056670353,307.2000566703529C755.6540566703529,307.2000566703529,737.2790566703529,325.5750566703529,737.2790566703529,348.16005667035296C737.2790566703529,348.16005667035296,737.2790566703529,450.55905667035296,737.2790566703529,450.55905667035296C737.2790566703529,473.1450566703529,755.6540566703529,491.5200566703529,778.239056670353,491.5200566703529C778.239056670353,491.5200566703529,901.1200566703529,491.5200566703529,901.1200566703529,491.5200566703529C923.705056670353,491.5200566703529,942.0790566703529,473.1450566703529,942.0790566703529,450.55905667035296C942.0790566703529,450.55905667035296,942.0790566703529,348.16005667035296,942.0790566703529,348.16005667035296C942.0790566703529,325.5750566703529,923.705056670353,307.2000566703529,901.1200566703529,307.2000566703529C901.1200566703529,307.2000566703529,778.239056670353,307.2000566703529,778.239056670353,307.2000566703529C778.239056670353,307.2000566703529,778.239056670353,307.2000566703529,778.239056670353,307.2000566703529ZM368.6400566703529,307.2000566703529C346.05505667035294,307.2000566703529,327.68005667035294,325.5750566703529,327.68005667035294,348.16005667035296C327.68005667035294,348.16005667035296,327.68005667035294,450.55905667035296,327.68005667035294,450.55905667035296C327.68005667035294,473.1450566703529,346.05505667035294,491.5200566703529,368.6400566703529,491.5200566703529C368.6400566703529,491.5200566703529,655.360056670353,491.5200566703529,655.360056670353,491.5200566703529C677.946056670353,491.5200566703529,696.320056670353,473.1450566703529,696.320056670353,450.55905667035296C696.320056670353,450.55905667035296,696.320056670353,348.16005667035296,696.320056670353,348.16005667035296C696.320056670353,325.5750566703529,677.946056670353,307.2000566703529,655.360056670353,307.2000566703529C655.360056670353,307.2000566703529,368.6400566703529,307.2000566703529,368.6400566703529,307.2000566703529C368.6400566703529,307.2000566703529,368.6400566703529,307.2000566703529,368.6400566703529,307.2000566703529ZM122.88105667035293,307.2000566703529C100.29405667035293,307.2000566703529,81.91905667035293,325.5750566703529,81.91905667035293,348.16005667035296C81.91905667035293,348.16005667035296,81.91905667035293,450.55905667035296,81.91905667035293,450.55905667035296C81.91905667035293,473.1450566703529,100.29405667035293,491.5200566703529,122.88105667035293,491.5200566703529C122.88105667035293,491.5200566703529,245.75905667035292,491.5200566703529,245.75905667035292,491.5200566703529C268.34505667035296,491.5200566703529,286.72105667035294,473.1450566703529,286.72105667035294,450.55905667035296C286.72105667035294,450.55905667035296,286.72105667035294,348.16005667035296,286.72105667035294,348.16005667035296C286.72105667035294,325.5750566703529,268.34505667035296,307.2000566703529,245.75905667035292,307.2000566703529C245.75905667035292,307.2000566703529,122.88105667035293,307.2000566703529,122.88105667035293,307.2000566703529C122.88105667035293,307.2000566703529,122.88105667035293,307.2000566703529,122.88105667035293,307.2000566703529Z"/>
</svg>