<svg t="1704698201249" class="icon" viewBox="0 0 1024 1024" version="1.1"
    xmlns="http://www.w3.org/2000/svg" p-id="9074" width="200" height="200">
    <path fill="currentColor" d="M763.128,978.738C734.673,950.069,718.711,911.327,718.704,870.962C718.704,870.724,718.704,870.486,718.705,870.248C718.769,797.763,768.67,736.954,835.809,720.786C835.809,720.786,835.809,568.176,835.809,568.176C835.809,568.176,547.581,568.176,547.581,568.176C547.581,568.176,547.581,720.869,547.581,720.869C574.937,727.49,600.18,741.58,620.317,761.889C648.759,790.573,664.701,829.322,664.688,869.687C664.688,869.925,664.688,870.163,664.686,870.401C664.687,870.566,664.687,870.731,664.687,870.897C664.713,955.25,596.42,1023.76,511.97,1024C511.98,1024,511.99,1024,512,1024C512,1024,511.925,1024,511.925,1024C511.941,1024,511.954,1024,511.97,1024C427.624,1023.65,359.489,955.207,359.466,870.991C359.466,870.743,359.467,870.495,359.468,870.248C359.467,870.01,359.466,869.772,359.467,869.534C359.494,829.169,375.473,790.437,403.944,761.782C424.028,741.567,449.173,727.53,476.419,720.906C476.419,720.906,476.419,568.176,476.419,568.176C476.419,568.176,188.192,568.176,188.192,568.176C188.192,568.176,188.192,720.755,188.192,720.755C255.386,736.889,305.296,797.799,305.296,870.401C305.296,870.566,305.296,870.731,305.296,870.896C305.239,955.23,236.972,1023.71,152.534,1024C68.1741,1023.67,0.0217634,955.217,0,870.991C0,870.743,0.000558036,870.495,0.00167411,870.248C0.000558036,870.01,0,869.772,0.000558036,869.534C0.0262277,829.169,16.0073,790.437,44.4777,761.782C64.5815,741.548,89.7517,727.504,117.029,720.888C117.029,720.888,117.029,568.176,117.029,568.176C117.029,528.577,148.877,496.592,188.192,496.592C188.192,496.592,476.419,496.592,476.419,496.592C476.419,496.592,476.419,363.143,476.419,363.143C392.817,346.295,329.955,272.484,329.905,184.111C329.905,183.816,329.905,183.52,329.906,183.224C329.906,183.224,329.905,183.3,329.905,183.3C329.905,82.0164,411.429,0,512,0C612.572,0,694.096,82.0931,694.096,183.376C694.096,183.573,694.097,183.77,694.097,183.967C694.113,272.413,631.224,346.287,547.581,363.143C547.581,363.143,547.581,496.592,547.581,496.592C547.581,496.592,835.809,496.592,835.809,496.592C875.124,496.592,906.97,528.577,906.97,568.176C906.97,568.176,906.97,720.852,906.97,720.852C974.179,737.088,1024.02,797.609,1024,869.656C1024,869.904,1024,870.152,1024,870.4C1024,870.565,1024,870.73,1024,870.895C1024.02,955.234,955.758,1023.75,871.314,1024C830.673,1023.86,791.753,1007.58,763.128,978.738C763.128,978.738,763.128,978.738,763.128,978.738Z"/>
</svg>