<?xml version="1.0" encoding="UTF-8"?>
<svg width="18px" height="18px" viewBox="0 0 18 18" version="1.1" xmlns="http://www.w3.org/2000/svg" xmlns:xlink="http://www.w3.org/1999/xlink">
    <!-- Generator: Sketch 52.6 (67491) - http://www.bohemiancoding.com/sketch -->
    <title>存款icon</title>
    <desc>Created with Sketch.</desc>
    <g id="Page-1" stroke="none" stroke-width="1" fill="none" fill-rule="evenodd">
        <g id="Custom-Preset-2" transform="translate(-18.000000, -321.000000)" fill-rule="nonzero">
            <g id="存款" transform="translate(0.000000, 310.000000)">
                <g id="存款icon" transform="translate(18.000000, 11.000000)">
                    <rect id="矩形-copy-9" fill-opacity="0" fill="#D8D8D8" x="0" y="0" width="18" height="18"></rect>
                    <circle id="椭圆形" stroke="#697B8C" cx="7.2" cy="3.6" r="2.7"></circle>
                    <path d="M11.50875,4.11428571 C11.9925,3.15 12.96,3.15 13.9275,3.15 C13.7613636,3.9758717 13.4255052,4.73484259 13.0932325,5.56071429 C14.256187,6.0562373 14.8803409,6.78844787 15.37875,8.93571429 C15.7110227,8.93571429 16.4977273,8.93571429 16.83,8.93571429 L16.83,11.9210859 L14.895,12.3107143 C14.49244,13.514382 13.7941495,14.0862783 12.9808736,14.4922329 C12.8715237,14.546816 12.7033158,15.2660717 12.47625,16.65 L10.54125,16.65 C10.1616425,15.4794827 9.86222118,14.894224 9.64298604,14.894224 C8.99950337,14.894224 8.33445349,14.894224 7.64783641,14.894224 C7.46483375,14.894224 7.13930494,15.4794827 6.67125,16.65 L4.73625,16.65 C4.47384555,15.2335194 4.15134555,14.4299479 3.76875,14.2392857 C1.83375,13.275 1.35,11.3464286 1.35,9.9 C1.35,8.58186737 1.75174013,6.86332931 3.2874332,5.83905612" id="路径" stroke="#697B8C" stroke-linecap="round" stroke-linejoin="round"></path>
                    <circle id="椭圆形" stroke="#697B8C" cx="11.25" cy="8.55" r="1"></circle>
                </g>
            </g>
        </g>
    </g>
</svg>