<?xml version="1.0" encoding="UTF-8"?>
<svg width="18px" height="16px" viewBox="0 0 18 16" version="1.1" xmlns="http://www.w3.org/2000/svg" xmlns:xlink="http://www.w3.org/1999/xlink">
    <!-- Generator: Sketch 52.6 (67491) - http://www.bohemiancoding.com/sketch -->
    <title>贷款管理icon</title>
    <desc>Created with Sketch.</desc>
    <g id="Page-1" stroke="none" stroke-width="1" fill="none" fill-rule="evenodd">
        <g id="Custom-Preset-2" transform="translate(-18.000000, -522.000000)" fill-rule="nonzero">
            <g id="贷款管理" transform="translate(0.000000, 510.000000)">
                <g id="贷款管理icon" transform="translate(18.000000, 11.000000)">
                    <rect id="矩形-copy-11" fill-opacity="0" fill="#D8D8D8" opacity="0.3" x="0" y="0" width="18" height="18"></rect>
                    <circle id="椭圆形" stroke="#697B8C" cx="9" cy="5.4" r="3.6"></circle>
                    <path d="M7.2,13.05 L9.8,13.05 C10.3522847,13.05 10.8,12.6022847 10.8,12.05 L10.8,11.8 C10.8,11.2477153 10.3522847,10.8 9.8,10.8 L2.35,10.8 C1.79771525,10.8 1.35,11.2477153 1.35,11.8 L1.35,13.6952808 C1.35,14.1178944 1.61567064,14.4948824 2.0136636,14.6370227 L6.54131514,16.2540411 C7.25398337,16.5085655 8.0365143,16.484351 8.73208222,16.1862505 L16.2029998,12.9844287 C16.7018984,12.770615 16.9391427,12.1978567 16.7375572,11.693893 L16.65,11.475 C16.4049969,10.8624923 15.709847,10.5645709 15.0973393,10.809574 C15.0920585,10.8116863 15.0867928,10.8138363 15.0815427,10.8160239 L10.8,12.6" id="路径-10" stroke="#697B8C" stroke-linecap="round"></path>
                </g>
            </g>
        </g>
    </g>
</svg>