<?xml version="1.0" encoding="UTF-8"?>
<svg width="16px" height="18px" viewBox="0 0 16 18" version="1.1" xmlns="http://www.w3.org/2000/svg" xmlns:xlink="http://www.w3.org/1999/xlink">
    <!-- Generator: Sketch 52.6 (67491) - http://www.bohemiancoding.com/sketch -->
    <title>公共管理icon</title>
    <desc>Created with Sketch.</desc>
    <g id="Page-1" stroke="none" stroke-width="1" fill="none" fill-rule="evenodd">
        <g id="Custom-Preset-2" transform="translate(-19.000000, -281.000000)" fill-rule="nonzero">
            <g id="公共管理" transform="translate(0.000000, 270.000000)">
                <g id="公共管理icon" transform="translate(16.000000, 9.000000)">
                    <rect id="矩形-copy-10" fill-opacity="0" fill="#D8D8D8" x="2" y="1.83333333" width="18" height="18"></rect>
                    <circle id="椭圆形" stroke="#697B8C" cx="11" cy="11" r="2.75"></circle>
                    <path d="M7.24281578,5.02596141 L7.53016373,6.09835853 L7.27276634,6.30236729 C6.88279416,6.61145256 6.53307157,6.96814318 6.2312105,7.36363812 L6.0279474,7.62995111 L5.04382363,7.36625594 C4.51035753,7.22331413 3.96202057,7.53989662 3.81907876,8.07336272 L3.26047406,10.1581038 C3.11753225,10.6915699 3.43411474,11.2399069 3.96758084,11.3828487 L5.02478344,11.6661253 L5.07756752,11.9837855 C5.10968546,12.1770748 5.15135268,12.3695492 5.20258576,12.5607536 C5.27187477,12.8193437 5.35746881,13.0711647 5.45875039,13.3152489 L5.58688007,13.6240359 L4.78339761,14.4275183 C4.39287332,14.8180426 4.39287332,15.4512076 4.78339761,15.8417319 L6.30953402,17.3678683 C6.70005831,17.7583926 7.33322329,17.7583926 7.72374758,17.3678683 L8.58204555,16.5095703 L8.88398168,16.6235543 C9.28479163,16.7748641 9.7006662,16.8829846 10.1246079,16.9455849 L10.4495249,16.9935629 L10.7385565,18.0722434 C10.8814983,18.6057095 11.4298353,18.922292 11.9633014,18.7793502 L14.0480425,18.2207455 C14.5815086,18.0778037 14.8980911,17.5294667 14.7551493,16.9960006 L14.4661177,15.9173202 L14.7235151,15.7133114 C15.0593592,15.4471271 15.3654569,15.1455548 15.6369136,14.8141116 L15.841406,14.5644306 L17.0138628,14.8785894 C17.5473289,15.0215312 18.0956659,14.7049487 18.2386077,14.1714826 L18.7972124,12.0867415 C18.9401542,11.5532754 18.6235717,11.0049385 18.0901056,10.8619967 L16.9925282,10.5679017 L16.9490982,10.2364195 C16.9147685,9.97439553 16.8629847,9.71351521 16.7936957,9.45492507 C16.7424626,9.26372064 16.6823103,9.07619929 16.6134806,8.89274694 L16.5003628,8.59125305 L17.2742888,7.81732703 C17.6648131,7.42680274 17.6648131,6.79363776 17.2742888,6.40311347 L15.7481524,4.87697706 C15.3576281,4.48645277 14.7244632,4.48645277 14.3339389,4.87697706 L13.6135103,5.59740567 L13.3043228,5.4684034 C12.8451559,5.27682527 12.363942,5.14278342 11.8716735,5.07009382 L11.5467565,5.02211575 L11.2594085,3.94971863 C11.1164667,3.41625252 10.5681298,3.09967003 10.0346637,3.24261184 L7.94992256,3.80121654 C7.41645646,3.94415835 7.09987397,4.49249531 7.24281578,5.02596141 Z" id="合并形状" stroke="#697B8C" transform="translate(11.028843, 11.010981) rotate(-345.000000) translate(-11.028843, -11.010981) "></path>
                </g>
            </g>
        </g>
    </g>
</svg>