<?xml version="1.0" encoding="UTF-8"?>
<svg width="20px" height="17px" viewBox="0 0 20 17" version="1.1" xmlns="http://www.w3.org/2000/svg" xmlns:xlink="http://www.w3.org/1999/xlink">
    <!-- Generator: Sketch 52.6 (67491) - http://www.bohemiancoding.com/sketch -->
    <title>分组 16 copy</title>
    <desc>Created with Sketch.</desc>
    <g id="Page-1" stroke="none" stroke-width="1" fill="none" fill-rule="evenodd">
        <g id="Custom-Preset-2" transform="translate(-1204.000000, -16.000000)" fill-rule="nonzero">
            <g id="分组-16-copy" transform="translate(1201.000000, 12.000000)">
                <rect id="矩形-copy-12" fill-opacity="0" fill="#2D7FCB" x="0" y="0" width="26" height="26" rx="13"></rect>
                <path d="M16.4258849,5.14644661 L15.5288722,6.04345932 L10.4669275,6.04345932 L9.57133671,5.14786852 C9.37607457,4.95260637 9.05949208,4.95260637 8.86422993,5.14786852 L4.18644661,9.82565184 C3.99118446,10.020914 3.99118446,10.3374965 4.18644661,10.5327586 L6.5797311,12.9260431 C6.68988214,13.0361941 6.84129038,13.0871006 6.99334428,13.0689125 L7.55272894,13.0020012 L7.55272894,19.6203824 C7.55272894,19.8965248 7.77658657,20.1203824 8.05272894,20.1203824 L18.0527289,20.1203824 C18.3288713,20.1203824 18.5527289,19.8965248 18.5527289,19.6203824 L18.5527289,13.0654049 L19.0582981,13.0710364 C19.1924612,13.0725309 19.3207521,13.0213597 19.4174906,12.9246212 L21.810775,10.5313367 C22.0060372,10.3360746 22.0060372,10.0194921 21.810775,9.82422993 L17.1329917,5.14644661 C16.9377296,4.95118446 16.6211471,4.95118446 16.4258849,5.14644661 Z" id="合并形状" stroke-opacity="0.9" stroke="#FFFFFF"></path>
            </g>
        </g>
    </g>
</svg>