<?xml version="1.0" encoding="UTF-8"?>
<svg width="16px" height="17px" viewBox="0 0 16 17" version="1.1" xmlns="http://www.w3.org/2000/svg" xmlns:xlink="http://www.w3.org/1999/xlink">
    <!-- Generator: Sketch 52.6 (67491) - http://www.bohemiancoding.com/sketch -->
    <title>决策中心icon</title>
    <desc>Created with Sketch.</desc>
    <g id="Page-1" stroke="none" stroke-width="1" fill="none" fill-rule="evenodd">
        <g id="Custom-Preset-2" transform="translate(-19.000000, -401.000000)" fill-rule="nonzero">
            <g id="决策中心" transform="translate(0.000000, 390.000000)">
                <g id="决策中心icon" transform="translate(18.000000, 11.000000)">
                    <rect id="矩形-copy-5" fill-opacity="0" fill="#D8D8D8" opacity="0.3" x="0" y="0" width="18" height="18"></rect>
                    <path d="M2.25,15.75 L10.7641396,15.75" id="路径-copy" stroke="#697B8C" stroke-linecap="round"></path>
                    <path d="M3.89647725,4.03215908 L3.89647725,9.33215908 L10.0964772,9.33215908 L10.0964772,4.03215908 L3.89647725,4.03215908 Z" id="矩形" stroke="#697B8C" transform="translate(6.996477, 6.682159) rotate(-45.000000) translate(-6.996477, -6.682159) "></path>
                    <path d="M11.805487,7.39116882 C11.5293446,7.39116882 11.305487,7.61502645 11.305487,7.89116882 L11.305487,15.7911688 C11.305487,16.0673112 11.5293446,16.2911688 11.805487,16.2911688 L12.505487,16.2911688 C12.7816294,16.2911688 13.005487,16.0673112 13.005487,15.7911688 L13.005487,7.89116882 C13.005487,7.61502645 12.7816294,7.39116882 12.505487,7.39116882 L11.805487,7.39116882 Z" id="矩形" stroke="#697B8C" transform="translate(12.155487, 11.841169) rotate(-45.000000) translate(-12.155487, -11.841169) "></path>
                    <path d="M3.78269478,6.44594155 C3.50655241,6.44594155 3.28269478,6.66979917 3.28269478,6.94594155 L3.28269478,12.1459415 C3.28269478,12.4220839 3.50655241,12.6459415 3.78269478,12.6459415 L4.48269478,12.6459415 C4.75883716,12.6459415 4.98269478,12.4220839 4.98269478,12.1459415 L4.98269478,6.94594155 C4.98269478,6.66979917 4.75883716,6.44594155 4.48269478,6.44594155 L3.78269478,6.44594155 Z" id="矩形-copy-24" stroke="#697B8C" transform="translate(4.132695, 9.545942) rotate(-45.000000) translate(-4.132695, -9.545942) "></path>
                    <path d="M9.51025971,0.718376618 C9.23411734,0.718376618 9.01025971,0.942234243 9.01025971,1.21837662 L9.01025971,6.41837662 C9.01025971,6.69451899 9.23411734,6.91837662 9.51025971,6.91837662 L10.2102597,6.91837662 C10.4864021,6.91837662 10.7102597,6.69451899 10.7102597,6.41837662 L10.7102597,1.21837662 C10.7102597,0.942234243 10.4864021,0.718376618 10.2102597,0.718376618 L9.51025971,0.718376618 Z" id="矩形-copy-25" stroke="#697B8C" transform="translate(9.860260, 3.818377) rotate(-45.000000) translate(-9.860260, -3.818377) "></path>
                </g>
            </g>
        </g>
    </g>
</svg>