<?xml version="1.0" encoding="UTF-8"?>
<svg width="18px" height="15px" viewBox="0 0 18 15" version="1.1" xmlns="http://www.w3.org/2000/svg" xmlns:xlink="http://www.w3.org/1999/xlink">
    <!-- Generator: Sketch 52.6 (67491) - http://www.bohemiancoding.com/sketch -->
    <title>类信用卡icon</title>
    <desc>Created with Sketch.</desc>
    <g id="Page-1" stroke="none" stroke-width="1" fill="none" fill-rule="evenodd">
        <g id="Custom-Preset-2" transform="translate(-18.000000, -243.000000)" fill-rule="nonzero">
            <g id="类信用卡" transform="translate(0.000000, 230.000000)">
                <g id="类信用卡icon" transform="translate(18.000000, 11.000000)">
                    <rect id="矩形-copy-2" fill-opacity="0" fill="#D8D8D8" x="0" y="0" width="18" height="18"></rect>
                    <path d="M2.94639012,13 L14.8,5.83792414 L14.8,3.78 C14.8,3.4543658 14.5577469,3.2 14.2714286,3.2 L1.92857143,3.2 C1.64225315,3.2 1.4,3.4543658 1.4,3.78 L1.4,12.42 C1.4,12.7456342 1.64225315,13 1.92857143,13 L2.94639012,13 Z" id="路径" stroke="#697B8C"></path>
                    <rect id="矩形" stroke="#697B8C" x="3.2" y="5.9" width="13.4" height="9.8" rx="1"></rect>
                    <path d="M11.2530503,10.5128439 C10.923154,10.1371472 10.4392713,9.9 9.9,9.9 C8.90588745,9.9 8.1,10.7058875 8.1,11.7 C8.1,12.6941125 8.90588745,13.5 9.9,13.5 C10.4223051,13.5 10.8926518,13.2775401 11.221459,12.9222016" id="路径" stroke="#697B8C"></path>
                    <circle id="椭圆形-copy-4" stroke="#697B8C" cx="12.6" cy="11.7" r="1.8"></circle>
                </g>
            </g>
        </g>
    </g>
</svg>