<?xml version="1.0" encoding="UTF-8"?>
<svg width="16px" height="16px" viewBox="0 0 16 16" version="1.1" xmlns="http://www.w3.org/2000/svg" xmlns:xlink="http://www.w3.org/1999/xlink">
    <!-- Generator: Sketch 52.6 (67491) - http://www.bohemiancoding.com/sketch -->
    <title>分组 16</title>
    <desc>Created with Sketch.</desc>
    <g id="Page-1" stroke="none" stroke-width="1" fill="none" fill-rule="evenodd">
        <g id="Custom-Preset-2" transform="translate(-1239.000000, -17.000000)" fill-rule="nonzero">
            <g id="分组-16" transform="translate(1234.000000, 12.000000)">
                <rect id="矩形-copy-12" fill-opacity="0" fill="#2D7FCB" x="0" y="0" width="26" height="26" rx="13"></rect>
                <path d="M16.5,6 L19.125,6 C19.6082492,6 20,6.39175084 20,6.875 L20,9.5 M20,16.5 L20,19.125 C20,19.6082492 19.6082492,20 19.125,20 L16.5,20 M9.5,20 L6.875,20 C6.39175084,20 6,19.6082492 6,19.125 L6,16.5 M6,9.5 L6,6.875 C6,6.39175084 6.39175084,6 6.875,6 L9.5,6" id="形状" stroke-opacity="0.9" stroke="#FFFFFF" stroke-linecap="round"></path>
                <path d="M6.53846154,6.53846154 L9.23076923,9.23076923" id="路径-11" stroke-opacity="0.9" stroke="#FFFFFF" stroke-linecap="round"></path>
                <path d="M19.4615385,6.53846154 L16.7692308,9.23076923" id="路径-12" stroke-opacity="0.9" stroke="#FFFFFF" stroke-linecap="round"></path>
                <path d="M6.53846154,19.4615385 L9.23076923,16.7692308" id="路径-13" stroke-opacity="0.9" stroke="#FFFFFF" stroke-linecap="round"></path>
                <path d="M19.4615385,19.4615385 L16.7692308,16.7692308" id="路径-14" stroke-opacity="0.9" stroke="#FFFFFF" stroke-linecap="round"></path>
                <rect id="矩形" stroke-opacity="0.9" stroke="#FFFFFF" x="9.73076923" y="9.73076923" width="6.53846154" height="6.53846154" rx="1"></rect>
            </g>
        </g>
    </g>
</svg>