<?xml version="1.0" encoding="UTF-8"?>
<svg width="14px" height="17px" viewBox="0 0 14 17" version="1.1" xmlns="http://www.w3.org/2000/svg" xmlns:xlink="http://www.w3.org/1999/xlink">
    <!-- Generator: Sketch 52.6 (67491) - http://www.bohemiancoding.com/sketch -->
    <title>日志中心icon</title>
    <desc>Created with Sketch.</desc>
    <g id="Page-1" stroke="none" stroke-width="1" fill="none" fill-rule="evenodd">
        <g id="Custom-Preset-2" transform="translate(-20.000000, -562.000000)" fill-rule="nonzero">
            <g id="日志中心" transform="translate(0.000000, 550.000000)">
                <g id="日志中心icon" transform="translate(18.000000, 11.000000)">
                    <rect id="矩形-copy-4" fill-opacity="0" fill="#D8D8D8" opacity="0.3" x="0" y="0" width="18" height="18"></rect>
                    <g id="分组" transform="translate(2.700000, 1.800000)" stroke="#697B8C">
                        <path d="M13.45,5.6226812 L9.258132,1.85 L-0.35,1.85 C-0.626142375,1.85 -0.85,2.07385763 -0.85,2.35 L-0.85,12.95 C-0.85,13.2261424 -0.626142375,13.45 -0.35,13.45 L12.95,13.45 C13.2261424,13.45 13.45,13.2261424 13.45,12.95 L13.45,5.6226812 Z" id="矩形" transform="translate(6.300000, 7.650000) rotate(-270.000000) translate(-6.300000, -7.650000) "></path>
                        <path d="M12.15,14.85 L9,14.85 C8.50294373,14.85 8.1,14.4470563 8.1,13.95 L8.1,10.8" id="路径" transform="translate(10.125000, 12.825000) rotate(-270.000000) translate(-10.125000, -12.825000) "></path>
                        <path d="M3.15,4.05 L9.45,4.05" id="路径-copy" stroke-linecap="round"></path>
                        <path d="M3.15,7.65 L9.45,7.65" id="路径-copy" stroke-linecap="round"></path>
                        <path d="M3.15,11.25 L5.85,11.25" id="路径-copy-2" stroke-linecap="round"></path>
                    </g>
                </g>
            </g>
        </g>
    </g>
</svg>