<?xml version="1.0" encoding="UTF-8"?>
<svg width="14px" height="15px" viewBox="0 0 14 15" version="1.1" xmlns="http://www.w3.org/2000/svg" xmlns:xlink="http://www.w3.org/1999/xlink">
    <!-- Generator: Sketch 52.6 (67491) - http://www.bohemiancoding.com/sketch -->
    <title>审核中心icon</title>
    <desc>Created with Sketch.</desc>
    <g id="Page-1" stroke="none" stroke-width="1" fill="none" fill-rule="evenodd">
        <g id="Custom-Preset-2" transform="translate(-20.000000, -602.000000)" fill-rule="nonzero">
            <g id="审核中心" transform="translate(0.000000, 590.000000)">
                <g id="审核中心icon" transform="translate(18.000000, 11.000000)">
                    <rect id="矩形-copy-6" fill-opacity="0" fill="#D8D8D8" opacity="0.3" x="0" y="0" width="18" height="18"></rect>
                    <path d="M7.03125,7.40911481 C6.31111079,6.83182966 5.85,5.94476393 5.85,4.95 C5.85,3.21030304 7.26030304,1.8 9,1.8 C10.739697,1.8 12.15,3.21030304 12.15,4.95 C12.15,5.94476393 11.6888892,6.83182966 10.96875,7.40911481 L10.96875,9.10227273 L13.8027967,9.83838876 C14.6844624,10.0673928 15.3,10.8632351 15.3,11.7741562 L15.3,13 C15.3,13.2761424 15.0761424,13.5 14.8,13.5 L3.2,13.5 C2.92385763,13.5 2.7,13.2761424 2.7,13 L2.7,11.7741562 C2.7,10.8632351 3.31553761,10.0673928 4.19720327,9.83838876 L7.03125,9.10227273 L7.03125,7.40911481 Z" id="合并形状" stroke="#697B8C"></path>
                    <path d="M2.7,15.3 L15.3,15.3" id="路径-copy" stroke="#697B8C" stroke-linecap="round"></path>
                </g>
            </g>
        </g>
    </g>
</svg>