<?xml version="1.0" encoding="UTF-8"?>
<svg width="16px" height="16px" viewBox="0 0 16 16" version="1.1" xmlns="http://www.w3.org/2000/svg" xmlns:xlink="http://www.w3.org/1999/xlink">
    <!-- Generator: Sketch 52.6 (67491) - http://www.bohemiancoding.com/sketch -->
    <title>首页icon</title>
    <desc>Created with Sketch.</desc>
    <g id="Page-1" stroke="none" stroke-width="1" fill="none" fill-rule="evenodd">
        <g id="Custom-Preset-2" transform="translate(-19.000000, -122.000000)" fill-rule="nonzero">
            <g id="首页" transform="translate(0.000000, 110.000000)">
                <g id="首页icon" transform="translate(18.000000, 11.000000)">
                    <rect id="矩形" fill-opacity="0" fill="#D8D8D8" x="0" y="0" width="18" height="18"></rect>
                    <path d="M14.8,14.7673706 L14.8,9.06737057 L15.7960718,9.06737057 C15.9932932,9.06737057 16.1813643,8.9841736 16.3140298,8.83824152 C16.5740846,8.55218119 16.553003,8.10946737 16.2669427,7.84941252 L10.0090092,2.16038205 C9.43687735,1.6402622 8.56312265,1.6402622 7.99099081,2.16038205 L1.73305729,7.84941252 C1.58712522,7.98207804 1.50392825,8.17014909 1.50392825,8.36737057 C1.50392825,8.75396989 1.81732892,9.06737057 2.20392825,9.06737057 L3.2,9.06737057 L3.2,14.7673706 C3.2,15.5957977 3.87157288,16.2673706 4.7,16.2673706 L6.65,16.2673706 C6.92614237,16.2673706 7.15,16.0435129 7.15,15.7673706 L7.15,12.3673706 C7.15,11.5389434 7.82157288,10.8673706 8.65,10.8673706 L9.35,10.8673706 C10.1784271,10.8673706 10.85,11.5389434 10.85,12.3673706 L10.85,15.7673706 C10.85,16.0435129 11.0738576,16.2673706 11.35,16.2673706 L13.3,16.2673706 C14.1284271,16.2673706 14.8,15.5957977 14.8,14.7673706 Z" id="合并形状" stroke="#697B8C"></path>
                </g>
            </g>
        </g>
    </g>
</svg>