<?xml version="1.0" encoding="UTF-8"?>
<svg width="18px" height="17px" viewBox="0 0 18 17" version="1.1" xmlns="http://www.w3.org/2000/svg" xmlns:xlink="http://www.w3.org/1999/xlink">
    <!-- Generator: Sketch 52.6 (67491) - http://www.bohemiancoding.com/sketch -->
    <title>营销中心icon</title>
    <desc>Created with Sketch.</desc>
    <g id="Page-1" stroke="none" stroke-width="1" fill="none" fill-rule="evenodd">
        <g id="Custom-Preset-2" transform="translate(-18.000000, -202.000000)" fill-rule="nonzero">
            <g id="营销中心" transform="translate(0.000000, 190.000000)">
                <g id="营销中心icon" transform="translate(18.000000, 11.000000)">
                    <rect id="矩形-copy" fill-opacity="0" fill="#D8D8D8" x="0" y="0" width="18" height="18"></rect>
                    <path d="M15.6146529,5.36535842 L15.4482253,5.25490094 L15.0392794,3.4657628 C14.8833788,2.78369783 14.276647,2.3 13.5769916,2.3 L4.42300835,2.3 C3.72335301,2.3 3.11662115,2.78369783 2.96072059,3.4657628 L2.55177473,5.25490094 L2.3853471,5.36535842 C1.77435956,5.77086889 1.4,6.45325365 1.4,7.2 C1.4,8.41502645 2.38497355,9.4 3.6,9.4 C4.12015411,9.4 4.61122182,9.21952802 5.00316115,8.89453672 L5.30548805,8.64385095 L5.62065277,8.87819282 C6.07403988,9.21531044 6.62238849,9.4 7.2,9.4 C7.74974075,9.4 8.27312151,9.23278572 8.71395108,8.92529713 L9,8.72577155 L9.28604892,8.92529713 C9.72687849,9.23278572 10.2502592,9.4 10.8,9.4 C11.3776115,9.4 11.9259601,9.21531044 12.3793472,8.87819282 L12.6945119,8.64385095 L12.9968388,8.89453672 C13.3887782,9.21952802 13.8798459,9.4 14.4,9.4 C15.6150264,9.4 16.6,8.41502645 16.6,7.2 C16.6,6.45325365 16.2256404,5.77086889 15.6146529,5.36535842 Z" id="合并形状" stroke="#697B8C"></path>
                    <path d="M15.3,9 L15.3,15.3 C15.3,16.0455844 14.6955844,16.65 13.95,16.65 L11.2,16.65 C11.0895431,16.65 11,16.5604569 11,16.45 L11,12.7 C11,12.5895431 10.9104569,12.5 10.8,12.5 L7.2,12.5 C7.08954305,12.5 7,12.5895431 7,12.7 L7,16.45 C7,16.5604569 6.91045695,16.65 6.8,16.65 L4.05,16.65 C3.30441559,16.65 2.7,16.0455844 2.7,15.3 L2.7,9" id="路径" stroke="#697B8C"></path>
                </g>
            </g>
        </g>
    </g>
</svg>