<svg xmlns="http://www.w3.org/2000/svg" xmlns:xlink="http://www.w3.org/1999/xlink" fill="none" version="1.1" width="48" height="48" viewBox="0 0 48 48"><defs><clipPath id="master_svg0_42_77468"><rect x="8" y="8" width="32" height="32" rx="0"/></clipPath></defs><g><rect x="0" y="0" width="48" height="48" rx="8" fill="#4C8EDA" fill-opacity="0.07999999821186066"/><g clip-path="url(#master_svg0_42_77468)"><g><path d="M36,18.66668701171875L36,35.99098701171875C36,36.73348701171875,35.4069,37.33338701171875,34.6755,37.33338701171875L13.32453,37.33338701171875C12.593267,37.33338701171875,12,36.74138701171875,12,36.010987011718754L12,11.98908701171875C12,11.27376701171875,12.598267,10.66668701171875,13.33628,10.66668701171875L27.9957,10.66668701171875L36,18.66668701171875ZM33.3333,20.00001701171875L26.6667,20.00001701171875L26.6667,13.33335701171875L14.66667,13.33335701171875L14.66667,34.66668701171875L33.3333,34.66668701171875L33.3333,20.00001701171875ZM18.66667,17.33335701171875L22.6667,17.33335701171875L22.6667,20.00001701171875L18.66667,20.00001701171875L18.66667,17.33335701171875ZM18.66667,22.66668701171875L29.3333,22.66668701171875L29.3333,25.33338701171875L18.66667,25.33338701171875L18.66667,22.66668701171875ZM18.66667,27.99998701171875L29.3333,27.99998701171875L29.3333,30.66668701171875L18.66667,30.66668701171875L18.66667,27.99998701171875Z" fill="#4C8EDA" fill-opacity="1"/></g></g></g></svg>