<?xml version="1.0" standalone="no"?>
<!DOCTYPE svg PUBLIC "-//W3C//DTD SVG 1.1//EN" "http://www.w3.org/Graphics/SVG/1.1/DTD/svg11.dtd" >
<!--
2013-9-30: Created.
-->
<svg>
<metadata>
Created by iconfont
</metadata>
<defs>

<font id="iconfont" horiz-adv-x="1024" >
  <font-face
    font-family="iconfont"
    font-weight="500"
    font-stretch="normal"
    units-per-em="1024"
    ascent="896"
    descent="-128"
  />
    <missing-glyph />

    <glyph glyph-name="-dingjiazhongxin" unicode="&#58970;" d="M400.25 553.619c1.84 14.252 14.885 24.314 29.137 22.472 12.669-1.636 22.026-12.126 22.658-24.447l-0.183-4.693-21.959-170.117c-1.977-15.319-16.58-25.168-31.028-22.167l-4.793 1.486-158.305 66.042c-13.263 5.533-19.53 20.77-13.999 34.033 4.917 11.79 17.502 18.051 29.552 15.41l4.478-1.413 126.825-52.88 17.618 136.274zM506.265 476.405c12.445 7.185 28.359 2.92 35.544-9.526 6.387-11.063 3.729-24.866-5.681-32.843l-3.84-2.701L295.69 294.736c-12.444-7.185-28.358-2.92-35.543 9.526-6.388 11.063-3.729 24.866 5.681 32.843l3.84 2.702 236.596 136.598zM546.449 370.98c12.444 7.185 28.358 2.92 35.544-9.526 6.387-11.063 3.728-24.866-5.682-32.843l-3.84-2.701L366.9 207.22400000000005c-12.445-7.185-28.359-2.92-35.544 9.526-6.387 11.063-3.729 24.866 5.681 32.843l3.84 2.701 205.57 118.686zM404.098 380.168c11.062 6.387 24.864 3.726 32.842-5.685l2.701-3.84 100.967-174.881c7.186-12.446 2.923-28.36-9.522-35.545-11.062-6.386-24.864-3.726-32.842 5.685l-2.701 3.841-100.967 174.88c-7.186 12.446-2.923 28.36 9.522 35.545zM160.732 711.337c14.066 25.266 40.912 40.766 69.826 40.314l67.555-1.055 31.357 58.015c12.637 22.726 35.62 37.54 61.151 39.935l8.594 0.332 243.26-3.925c24.73-0.399 47.623-12.44 61.96-32.173l4.452-6.858L980.665 335.19000000000005c20.31-35.177 10.119-79.605-22.36-102.729l-6.348-4.078-361.493-208.708-0.064 0.11-168.842-97.481c-37.102-21.421-84.395-9.131-106.275 27.382l-0.655 1.114L42.85 421.532c-13.725 23.772-13.937 53.02-0.558 77.052z m214.322 72.01l-18.199-33.668 117.173-1.832c27.226-0.425 52.22-14.943 66.034-38.299l0.416-0.71 271.778-470.733a77.823 77.823 0 0 0 9.187-24.922l104.466 60.315c11.092 6.404 15.71 19.71 11.547 31.337l-1.978 4.265L663.7 779.8340000000001a26.033 26.033 0 0 1-17.634 12.545l-4.503 0.465-243.26 3.925a26.123 26.123 0 0 1-23.249-13.422z m-145.435-83.82a26.18 26.18 0 0 1-23.276-13.439L87.903 473.335a26.033 26.033 0 0 1 0.186-25.684l271.778-470.733c7.193-12.459 23.15-16.711 35.643-9.499l361.911 208.95c12.493 7.212 16.789 23.158 9.596 35.617L495.239 682.719a26.033 26.033 0 0 1-22.15 13.003z"  horiz-adv-x="1024" />


    <glyph glyph-name="-qudaoguanli" unicode="&#58967;" d="M622.177 823.97c30.384 0 55.015-24.63 55.015-55.014v-220.06c0-30.383-24.63-55.014-55.015-55.014H402.118c-30.384 0-55.015 24.63-55.015 55.015V768.956c0 30.383 24.631 55.014 55.015 55.014h220.06z m0-55.014H402.118v-220.06h220.06v220.06zM347.103 273.823c30.384 0 55.015-24.631 55.015-55.015v-220.06c0-30.383-24.63-55.014-55.015-55.014H127.044c-30.383 0-55.014 24.63-55.014 55.015V218.808c0 30.384 24.63 55.015 55.014 55.015h220.06z m0-55.015H127.044v-220.06h220.06v220.06zM897.251 273.823c30.384 0 55.015-24.631 55.015-55.015v-220.06c0-30.383-24.63-55.014-55.015-55.014H677.192c-30.384 0-55.015 24.63-55.015 55.015V218.808c0 30.384 24.631 55.015 55.015 55.015h220.06z m0-55.015H677.192v-220.06h220.06v220.06zM732.207 411.36c42.895 0 78.146-32.728 82.144-74.575l0.378-7.948v-110.03h-55.015v110.03c0 13.504-9.73 24.735-22.563 27.065l-4.944 0.443H292.089c-13.504 0-24.735-9.731-27.065-22.563l-0.443-4.945v-110.03h-55.014v110.03c0 42.895 32.727 78.146 74.574 82.145l7.948 0.378h440.118zM539.655 493.882v-137.537H484.64V493.882z"  horiz-adv-x="1024" />


    <glyph glyph-name="-xiaoxi" unicode="&#58966;" d="M124.108 617.706l342.666-251.288c26.92-19.74 63.533-19.74 90.452 0l342.666 251.288c-3.075 25.217-24.56 44.75-50.607 44.75h-674.57c-26.047 0-47.532-19.533-50.607-44.75z m-0.378-62.948v-398.23c0-28.157 22.827-50.984 50.985-50.984h674.57c28.158 0 50.985 22.827 50.985 50.985v398.23L587.377 325.302c-44.866-32.9-105.888-32.9-150.754 0L123.73 554.758z m50.985 158.683h674.57c56.316 0 101.97-45.654 101.97-101.97V156.52999999999997c0-56.316-45.654-101.97-101.97-101.97h-674.57c-56.316 0-101.97 45.654-101.97 101.97V611.47c0 56.316 45.654 101.97 101.97 101.97z"  horiz-adv-x="1024" />


    <glyph glyph-name="-daihouguanli" unicode="&#58962;" d="M128.5 293.938c0 14.117 11.462 25.562 25.6 25.562 12.568 0 23.02-9.043 25.188-20.968l0.412-4.594v-216.75c0-12.31 10.383-23.168 24.648-25.217l4.89-0.346h606.524c15.048 0 26.935 9.627 29.162 21.523l0.376 4.04v216.75c0 14.117 11.462 25.562 25.6 25.562 12.568 0 23.02-9.043 25.188-20.968l0.412-4.595v-216.75c0-40.416-32.606-72.894-73.45-76.377l-7.288-0.31H209.238c-41.729 0-76.653 30.232-80.404 69.642l-0.334 7.046v216.75zM691.438 326C705.554 326 717 314.58299999999997 717 300.5c0-12.518-9.043-22.93-20.968-25.09l-4.595-0.41H333.563C319.445 275 308 286.41700000000003 308 300.5c0 12.518 9.043 22.93 20.968 25.09l4.594 0.41h357.875zM771.438 547C785.554 547 797 535.5830000000001 797 521.5c0-12.518-9.043-22.93-20.968-25.09l-4.595-0.41H253.563C239.446 496 228 507.417 228 521.5c0 12.518 9.043 22.93 20.968 25.09l4.595 0.41h517.875zM870.4 768c14.138 0 25.6-11.417 25.6-25.5 0-12.518-9.056-22.93-20.998-25.09l-4.602-0.41H153.6c-14.138 0-25.6 11.417-25.6 25.5 0 12.518 9.056 22.93 20.998 25.09l4.602 0.41h716.8z"  horiz-adv-x="1024" />


    <glyph glyph-name="-clguanli" unicode="&#58961;" d="M511.6 718.56c-169.678 0-307.23-137.552-307.23-307.23 0-48.526 7.221-87.283 23.061-125.647 12.878-31.19 28.923-58.415 63.293-110.091l2.557-3.84 67.497-89.996a83.79 83.79 0 0 1 67.032-33.516h167.58a83.79 83.79 0 0 1 67.032 33.516l67.497 89.996 3.527 5.3c32.872 49.512 49.494 78.028 62.347 109.368 15.793 38.504 23.037 77.207 23.037 124.91 0 169.678-137.552 307.23-307.23 307.23z m0-55.86c138.828 0 251.37-112.542 251.37-251.37 0-40.605-5.897-72.111-18.858-103.713l-0.345-0.837c-11.075-26.776-26.3-52.811-57.012-99.063l-2.464-3.703-66.557-88.742A27.93 27.93 0 0 0 595.39 104.10000000000002H427.348a27.945 27.945 0 0 0-21.882 11.172L338.9 204.02599999999995l-2.569 3.862c-31.776 47.83-46.295 72.537-57.267 99.113-12.96 31.389-18.834 62.912-18.834 104.329 0 138.828 112.542 251.37 251.37 251.37zM595.39 104.10000000000002H427.81c-30.85 0-55.86-25.01-55.86-55.86v-83.79c0-30.85 25.01-55.86 55.86-55.86h167.58c30.85 0 55.86 25.01 55.86 55.86v83.79c0 30.85-25.01 55.86-55.86 55.86z m-167.58-55.86h167.58v-83.79H427.81v83.79zM595.39 327.53999999999996c15.425 0 27.93-12.505 27.93-27.93 0-15.271-12.256-27.68-27.468-27.926l-0.462-0.004H427.81c-15.425 0-27.93 12.505-27.93 27.93 0 15.271 12.256 27.68 27.468 27.926l0.462 0.004h167.58zM539.53 299.61v-251.37h-55.86V299.61zM511.6 858.21c15.271 0 27.68-12.256 27.926-27.468l0.004-0.462v-41.895c0-15.425-12.505-27.93-27.93-27.93-15.271 0-27.68 12.256-27.926 27.468l-0.004 0.462V830.28c0 15.425 12.505 27.93 27.93 27.93zM140.884 724.28c9.163 12.216 26.413 14.79 38.73 5.86l0.372-0.275 41.142-30.856c12.34-9.255 14.841-26.762 5.586-39.102-9.163-12.217-26.412-14.79-38.73-5.86l-0.372 0.274-41.142 30.856c-12.34 9.255-14.84 26.762-5.586 39.102zM883.214 724.0840000000001c-9.056 12.296-26.283 15.02-38.678 6.197l-0.374-0.271-41.895-30.856c-12.42-9.148-15.073-26.632-5.926-39.052 9.056-12.296 26.283-15.02 38.678-6.197l0.374 0.271 41.895 30.856c12.42 9.148 15.073 26.632 5.926 39.052zM134.545 439.26c15.425 0 27.93-12.505 27.93-27.93 0-15.271-12.256-27.68-27.468-27.926l-0.462-0.004H92.65c-15.425 0-27.93 12.505-27.93 27.93 0 15.271 12.256 27.68 27.468 27.926l0.462 0.004h41.895zM930.55 439.26c15.425 0 27.93-12.505 27.93-27.93 0-15.271-12.256-27.68-27.468-27.926l-0.462-0.004h-41.895c-15.425 0-27.93 12.505-27.93 27.93 0 15.271 12.256 27.68 27.468 27.926l0.462 0.004h41.895z"  horiz-adv-x="1024" />


    <glyph glyph-name="-riqie" unicode="&#58958;" d="M513 792.578c226.204 0 409.578-183.374 409.578-409.578 0-14.138-11.461-25.599-25.599-25.599-14.137 0-25.598 11.461-25.598 25.599 0 197.928-160.453 358.38-358.381 358.38-197.928 0-358.38-160.452-358.38-358.38S315.071 24.620000000000005 513 24.620000000000005c14.138 0 25.599-11.462 25.599-25.6 0-14.137-11.461-25.598-25.599-25.598-226.204 0-409.578 183.374-409.578 409.578 0 226.204 183.374 409.578 409.578 409.578zM538.599 587.789c12.566 0 23.018-9.056 25.186-20.997l0.412-4.602v-204.789c0-12.566-9.055-23.018-20.997-25.186l-4.601-0.412h-204.79c-14.137 0-25.598 11.46-25.598 25.598 0 12.567 9.056 23.02 20.997 25.187l4.602 0.412H513V562.19c0 12.567 9.056 23.019 20.997 25.186l4.602 0.413zM776.484 324.30499999999995c8.886 8.886 22.68 9.874 32.656 2.962l3.546-2.962L915.08 221.91099999999994c15.051-15.052 6.106-40.074-13.696-43.344l-4.405-0.356H640.993c-14.138 0-25.599 11.461-25.599 25.599 0 12.567 9.056 23.018 20.998 25.186l4.601 0.412h194.191l-58.7 58.695c-8.886 8.886-9.874 22.68-2.962 32.657l2.962 3.545zM761.54-19.08000000000004c-8.886-8.886-22.68-9.874-32.657-2.962l-3.545 2.962-102.395 102.394c-15.05 15.051-6.105 40.074 13.697 43.344l4.404 0.356h255.987c14.137 0 25.598-11.461 25.598-25.599 0-12.567-9.055-23.018-20.997-25.186l-4.601-0.412H702.839l58.7-58.695c8.887-8.886 9.874-22.68 2.963-32.657l-2.962-3.545z"  horiz-adv-x="1024" />


    <glyph glyph-name="-liuchengguanli" unicode="&#58957;" d="M615.286 794H410.714C368.346 794 334 759.675 334 717.333v-76.666C334 598.325 368.346 564 410.714 564h204.572C657.654 564 692 598.325 692 640.667v76.666C692 759.675 657.654 794 615.286 794z m-204.572-51.111h204.572c14.122 0 25.571-11.442 25.571-25.556v-76.666c0-14.114-11.449-25.556-25.571-25.556H410.714c-14.122 0-25.571 11.442-25.571 25.556v76.666c0 14.114 11.449 25.556 25.571 25.556zM256.375 691C270.527 691 282 679.566 282 665.462c0-12.538-9.065-22.965-21.019-25.127l-4.606-0.412h-102.5c-12.58 0-23.042-9.034-25.212-20.948l-0.413-4.59v-178.77c0-12.537 9.065-22.964 21.019-25.127l4.606-0.411h51.25c14.152 0 25.625-11.434 25.625-25.539 0-12.537-9.065-22.964-21.019-25.127l-4.606-0.411h-51.25c-39.96 0-72.798 30.385-76.523 69.237L77 435.615v178.77c0 39.824 30.488 72.552 69.471 76.264l7.404 0.351h102.5zM615.286 498H410.714C368.346 498 334 463.675 334 421.333v-76.666C334 302.32500000000005 368.346 268 410.714 268h204.572C657.654 268 692 302.32500000000005 692 344.66700000000003v76.666C692 463.675 657.654 498 615.286 498z m-204.572-51.111h204.572c14.122 0 25.571-11.442 25.571-25.556v-76.666c0-14.114-11.449-25.556-25.571-25.556H410.714c-14.122 0-25.571 11.442-25.571 25.556v76.666c0 14.114 11.449 25.556 25.571 25.556zM615.286 204H410.714C368.346 204 334 169.67499999999995 334 127.33299999999997v-76.666C334 8.325000000000045 368.346-26 410.714-26h204.572C657.654-26 692 8.325000000000045 692 50.66700000000003v76.666C692 169.67499999999995 657.654 204 615.286 204z m-204.572-51.111h204.572c14.122 0 25.571-11.442 25.571-25.556v-76.666c0-14.114-11.449-25.556-25.571-25.556H410.714c-14.122 0-25.571 11.442-25.571 25.556v76.666c0 14.114 11.449 25.556 25.571 25.556zM190.358 481.694c10.415 6.978 24.082 5.239 32.476-3.504l2.885-3.603 50.998-76.873a25.735 25.735 0 0 0 2.38-23.931l-2.38-4.497-50.998-76.873c-7.812-11.775-23.644-14.957-35.361-7.107-10.416 6.978-14.075 20.324-9.273 31.473l2.2 4.062 41.514 62.71-41.514 62.608c-6.943 10.467-5.213 24.2 3.487 32.636l3.586 2.899zM767.625 409C753.473 409 742 397.566 742 383.462c0-12.538 9.065-22.965 21.019-25.127l4.606-0.412h102.5c12.58 0 23.042-9.034 25.212-20.948l0.413-4.59v-178.77c0-12.537-9.065-22.964-21.019-25.127l-4.606-0.411h-51.25c-14.152 0-25.625-11.434-25.625-25.539 0-12.537 9.065-22.964 21.019-25.127l4.606-0.411h51.25c39.96 0 72.798 30.385 76.523 69.237l0.352 7.378v178.77c0 39.824-30.488 72.552-69.471 76.264l-7.404 0.351h-102.5zM833.642 200.69399999999996c-10.415 6.978-24.082 5.239-32.476-3.504l-2.885-3.603-50.998-76.873a25.735 25.735 0 0 1-2.38-23.931l2.38-4.497 50.998-76.873c7.812-11.775 23.644-14.957 35.361-7.107 10.416 6.978 14.075 20.324 9.273 31.473l-2.2 4.062L799.2 102.5l41.514 62.66c6.943 10.466 5.213 24.2-3.487 32.635l-3.586 2.899z"  horiz-adv-x="1024" />


    <glyph glyph-name="-yichangguanli" unicode="&#58956;" d="M512.5 191.5m-38.5 0a38.5 38.5 0 1 1 77 0 38.5 38.5 0 1 1-77 0ZM446.165 733.697L75.94 116.32899999999995A76.841 76.841 0 0 1 65 76.80999999999995C65 34.389999999999986 99.37 0 141.77 0h740.449a76.739 76.739 0 0 1 39.497 10.946c36.357 21.826 48.146 69.007 26.332 105.383L577.824 733.697a76.79 76.79 0 0 1-26.332 26.345c-36.357 21.826-83.513 10.03-105.327-26.345z m78.995-17.564a25.597 25.597 0 0 0 8.777-8.782l370.225-617.368c7.271-12.125 3.342-27.852-8.777-35.127a25.58 25.58 0 0 0-13.166-3.65h-740.45c-14.132 0-25.59 11.464-25.59 25.604 0 4.64 1.261 9.194 3.647 13.173l370.225 617.368c6.463 10.778 19.601 15.082 30.953 10.796l4.156-2.014zM512.5 538c12.518 0 22.93-9.056 25.09-20.998l0.41-4.602v-204.8c0-14.138-11.417-25.6-25.5-25.6-12.518 0-22.93 9.056-25.09 20.998L487 307.6V512.4c0 14.138 11.417 25.6 25.5 25.6z"  horiz-adv-x="1024" />


    <glyph glyph-name="-rizhongpiliang" unicode="&#58955;" d="M128.235 690.6279999999999c0 40.469 32.628 72.989 73.501 76.477l7.293 0.31h82.765c14.148 0 25.618-11.46 25.618-25.596 0-12.565-9.062-23.016-21.013-25.183l-4.605-0.413H209.03c-15.058 0-26.954-9.64-29.183-21.55l-0.375-4.045v-665.49c0-12.326 10.39-23.199 24.665-25.25l4.893-0.347h606.942c15.058 0 26.954 9.64 29.183 21.552l0.375 4.044v665.49c0 12.326-10.39 23.198-24.665 25.25l-4.893 0.346h-82.765c-14.148 0-25.618 11.46-25.618 25.596 0 12.566 9.062 23.016 21.013 25.184l4.605 0.412h82.765c41.758 0 76.706-30.272 80.46-69.733l0.334-7.054v-665.49c0-40.47-32.628-72.99-73.501-76.478l-7.293-0.31H209.029c-41.758 0-76.706 30.271-80.46 69.732l-0.334 7.055v665.49zM614.883 819c28.272 0 51.192-22.939 51.192-51.235v-51.236c0-28.296-22.92-51.235-51.192-51.235H410.117c-28.272 0-51.192 22.939-51.192 51.235v51.236c0 28.296 22.92 51.235 51.192 51.235h204.766z m0-51.235H410.117v-51.236h204.766v51.236zM691.67 357.88199999999995c14.137 0 25.596-11.47 25.596-25.617 0-12.577-9.054-23.036-20.995-25.205l-4.6-0.413H461.307c-14.136 0-25.595 11.47-25.595 25.618 0 12.576 9.054 23.036 20.995 25.205l4.6 0.412H691.67zM691.67 511.588c14.137 0 25.596-11.47 25.596-25.617 0-12.577-9.054-23.036-20.995-25.205l-4.6-0.413H461.307c-14.136 0-25.595 11.47-25.595 25.618 0 12.576 9.054 23.035 20.995 25.205l4.6 0.412H691.67zM358.925 511.588c14.136 0 25.596-11.47 25.596-25.617 0-12.577-9.054-23.036-20.995-25.205l-4.6-0.413H333.33c-14.137 0-25.596 11.47-25.596 25.618 0 12.576 9.054 23.035 20.995 25.205l4.6 0.412h25.596zM358.925 357.88199999999995c14.136 0 25.596-11.47 25.596-25.617 0-12.577-9.054-23.036-20.995-25.205l-4.6-0.413H333.33c-14.137 0-25.596 11.47-25.596 25.618 0 12.576 9.054 23.036 20.995 25.205l4.6 0.412h25.596zM691.67 204.17600000000004c14.137 0 25.596-11.469 25.596-25.617 0-12.576-9.054-23.036-20.995-25.205l-4.6-0.413H461.307c-14.136 0-25.595 11.47-25.595 25.618 0 12.576 9.054 23.036 20.995 25.205l4.6 0.412H691.67zM358.925 204.17600000000004c14.136 0 25.596-11.469 25.596-25.617 0-12.576-9.054-23.036-20.995-25.205l-4.6-0.413H333.33c-14.137 0-25.596 11.47-25.596 25.618 0 12.576 9.054 23.036 20.995 25.205l4.6 0.412h25.596z"  horiz-adv-x="1024" />


    <glyph glyph-name="-fangkuanguanli1" unicode="&#58954;" d="M824.554 738.501a25.023 25.023 0 0 0 35.9 0c8.812-8.994 9.791-22.955 2.937-33.053l-2.937-3.589L728 569a25.023 25.023 0 0 0-35.9 0c-8.812 8.994-9.79 22.956-2.937 33.054l2.937 3.588 132.454 132.86zM842.504 772c26.037 0 47.496-20.004 50.429-45.776l0.341-6.044v-155.458c0-14.31-11.365-25.91-25.385-25.91-12.462 0-22.826 9.165-24.976 21.252l-0.409 4.658V720.1800000000001h-152.31c-14.02 0-25.384 11.6-25.384 25.91 0 12.72 8.98 23.299 20.822 25.493l4.563 0.417h152.31zM543.092 528.624c8.507 11.374 24.438 13.556 35.581 4.873 9.906-7.718 12.695-21.423 7.218-32.362l-2.444-3.955-101.54-135.76c-9.143-12.226-26.286-13.449-37.03-3.668l-3.324 3.667-101.54 135.761c-8.507 11.374-6.37 27.634 4.774 36.317 9.905 7.718 23.593 6.852 32.487-1.424l3.094-3.45 81.362-108.737 81.362 108.738zM595.001 383.35299999999995c14.02 0 25.385-11.6 25.385-25.91 0-12.72-8.98-23.298-20.822-25.492l-4.563-0.418H328.46c-14.02 0-25.385 11.6-25.385 25.91 0 12.72 8.98 23.299 20.822 25.493l4.563 0.417h266.542zM577.525 272.44000000000005c14.02 0 25.385-11.601 25.385-25.91 0-12.72-8.98-23.3-20.822-25.493l-4.563-0.417h-231.59c-14.02 0-25.384 11.6-25.384 25.91 0 12.719 8.98 23.298 20.822 25.492l4.563 0.417h231.589zM461.73 351.23199999999997c12.462 0 22.827-9.166 24.976-21.253l0.41-4.657v-175.157c0-14.31-11.366-25.91-25.386-25.91-12.462 0-22.826 9.166-24.976 21.253l-0.409 4.657V325.322c0 14.31 11.365 25.91 25.385 25.91zM123.853 687.972c0 40.136 33 72.388 74.339 75.848l7.377 0.307H512.5c14.31 0 25.91-11.365 25.91-25.385 0-12.462-9.166-22.826-21.253-24.976l-4.657-0.409H205.569c-15.23 0-27.262-9.56-29.516-21.373l-0.38-4.012v-609.238c0-12.224 10.508-23.007 24.946-25.041l4.95-0.344H819.43c15.23 0 27.262 9.56 29.516 21.373l0.38 4.012v304.62c0 14.019 11.6 25.384 25.91 25.384 12.72 0 23.299-8.98 25.492-20.822l0.418-4.563v-304.62c0-40.135-33-72.387-74.339-75.847l-7.377-0.307H205.57c-42.235 0-77.581 30.022-81.378 69.158l-0.338 6.997V687.972z"  horiz-adv-x="1024" />


    <glyph glyph-name="-chanpinjianrong" unicode="&#58950;" d="M459.412 529.26c4.994 13.242 19.778 19.928 33.02 14.934C607.584 500.76 686.94 392.22 691.31 267.1c5.927-169.724-126.857-312.117-296.581-318.044-169.724-5.927-312.118 126.857-318.044 296.58-3.806 108.99 49.957 210.113 139.647 268.551 11.858 7.726 27.733 4.377 35.459-7.48 7.726-11.858 4.376-27.733-7.481-35.46-74.79-48.73-119.58-132.971-116.407-223.822 4.94-141.436 123.6-252.09 265.037-247.15 141.437 4.939 252.09 123.6 247.151 265.036-3.641 104.278-69.773 194.732-165.746 230.93-13.242 4.995-19.927 19.778-14.933 33.02zM763.788 257.086c7.218-12.173 22.937-16.19 35.11-8.972 105.863 62.768 165.165 183.441 147.74 307.419C923.004 723.708 767.512 840.88 599.337 817.244 431.16 793.61 313.989 638.116 337.624 469.941c15.178-107.994 85.685-198.245 184.16-240.22 13.018-5.55 28.07 0.505 33.62 13.524 5.55 13.019-0.505 28.071-13.524 33.62-82.117 35.004-140.853 110.188-153.505 200.209-19.696 140.146 77.948 269.723 218.093 289.42 140.146 19.695 269.723-77.948 289.42-218.094 14.521-103.326-34.899-203.89-123.128-256.203-12.173-7.218-16.19-22.937-8.972-35.11z"  horiz-adv-x="1024" />


    <glyph glyph-name="-qita" unicode="&#58949;" d="M513 819.353C272.561 819.353 77.647 624.4390000000001 77.647 384c0-240.439 194.914-435.353 435.353-435.353 240.439 0 435.353 194.914 435.353 435.353 0 240.439-194.914 435.353-435.353 435.353z m0-51.218c212.152 0 384.135-171.983 384.135-384.135S725.152-0.1349999999999909 513-0.1349999999999909 128.865 171.84799999999996 128.865 384 300.848 768.135 513 768.135zM308.128 384m-51.218 0a51.218 51.218 0 1 1 102.436 0 51.218 51.218 0 1 1-102.436 0ZM513 384m-51.218 0a51.218 51.218 0 1 1 102.436 0 51.218 51.218 0 1 1-102.436 0ZM717.872 384m-51.218 0a51.218 51.218 0 1 1 102.436 0 51.218 51.218 0 1 1-102.436 0Z"  horiz-adv-x="1024" />


    <glyph glyph-name="-zichanfenlei" unicode="&#58947;" d="M819.018 786.774c9.202 12.055 26.434 14.367 38.489 5.165 10.715-8.18 13.732-22.705 7.808-34.298l-2.644-4.192-109.84-143.882c-9.89-12.957-28.435-14.253-40.057-3.887l-3.596 3.887-109.84 143.882c-9.202 12.055-6.89 29.287 5.165 38.49 10.715 8.18 25.521 7.262 35.143-1.51l3.346-3.655 88.013-115.243 88.013 115.243zM875.17 687.732c15.165 0 27.459-12.294 27.459-27.46 0-13.48-9.714-24.692-22.524-27.017l-4.936-0.442H586.841c-15.166 0-27.46 12.294-27.46 27.46 0 13.48 9.714 24.692 22.524 27.017l4.936 0.442h288.328zM856.264 570.183c15.166 0 27.46-12.294 27.46-27.46 0-13.48-9.714-24.692-22.524-27.017l-4.936-0.443H605.746c-15.166 0-27.46 12.294-27.46 27.46 0 13.48 9.714 24.692 22.524 27.017l4.936 0.443h250.518zM731.005 653.69c13.48 0 24.692-9.715 27.017-22.525l0.443-4.936v-185.635c0-15.166-12.294-27.46-27.46-27.46-13.48 0-24.692 9.714-27.017 22.524l-0.443 4.936V626.229c0 15.166 12.294 27.46 27.46 27.46zM428.947 797.572c30.33 0 54.92-24.589 54.92-54.92v-274.599c0-30.33-24.59-54.92-54.92-54.92H154.348c-30.331 0-54.92 24.59-54.92 54.92V742.652c0 30.331 24.589 54.92 54.92 54.92h274.599z m0-54.92H154.348v-274.599h274.599V742.652zM868.304 358.21400000000006c30.332 0 54.92-24.588 54.92-54.92v-274.598c0-30.332-24.588-54.92-54.92-54.92H593.706c-30.332 0-54.92 24.588-54.92 54.92V303.294c0 30.332 24.588 54.92 54.92 54.92h274.598z m0-54.92H593.706v-274.598h274.598V303.294zM428.947 358.21400000000006c30.33 0 54.92-24.588 54.92-54.92v-274.598c0-30.332-24.59-54.92-54.92-54.92H154.348c-30.331 0-54.92 24.588-54.92 54.92V303.294c0 30.332 24.589 54.92 54.92 54.92h274.599z m0-54.92H154.348v-274.598h274.599V303.294z"  horiz-adv-x="1024" />


    <glyph glyph-name="-hezuofang" unicode="&#62777;" d="M582.646 782.35466666c29.857 28.551 76.77 28.9 107.04 0.853l0.151-0.141 0.754-0.712 291.527-278.772a78.095 78.095 0 0 0 2.47-2.47c29.476-30.825 28.758-79.583-1.55-109.52l-0.767-0.747-142.026-135.813-0.23 0.22-271.638-255.474c-32.317-30.903-84.057-31.212-116.763-0.927l-0.985 0.927L43.376 389.21466666c-32.973 31.531-33.303 82.955-0.99 114.885l0.99 0.96 285.077 272.605c32.318 30.904 84.057 31.213 116.763 0.927l0.986-0.927 61.487-62.266zM365.124 740.05666666l-0.373-0.35L79.674 467.10166666c-11.56-11.055-11.676-28.411-0.347-39.592l0.347-0.337 407.253-389.435c12.216-11.682 32.404-11.8 44.78-0.35l0.373 0.35 57.133 53.734-80.991 77.448c-10.482 10.024-10.854 26.646-0.83 37.128 9.923 10.377 26.314 10.845 36.811 1.128l0.317-0.297 83.005-79.375 77.834 73.202-81.948 78.363c-10.482 10.024-10.854 26.646-0.83 37.128 9.922 10.377 26.313 10.845 36.81 1.128l0.317-0.297 83.963-80.29 58.333 54.862-194.182 185.689-38.633-36.943c-49.823-47.644-126.99-51.284-181.021-8.923l-1.63 1.298-1.474 1.209-30.057 25.05a78.095 78.095 0 0 0-9.208 9.065c-27.812 32.335-24.527 80.987 7.315 109.287l0.805 0.705 114.57 102.344-58.585 59.326c-12.217 11.682-32.404 11.799-44.78 0.35z m288.555 4.91c-9.913 8.89-25.061 8.681-34.736-0.57l-230.54-205.972-0.4-0.35c-10.313-9.166-11.471-24.876-2.657-35.463l0.27-0.319a25.575 25.575 0 0 1 3.016-2.969l29.835-24.865 1.125-0.923 0.972-0.775c33.182-26.015 80.444-24.064 111.386 4.655l0.942 0.888 55.139 52.728 0.405 0.393 0.191 0.19 0.25 0.256 18.152 18.842 233.216-223.011L945.76 428.60066666l0.435 0.424 0.23 0.228c9.527 9.719 9.755 25.253 0.49 35.259l-0.286 0.304a25.575 25.575 0 0 1-0.809 0.809L654.407 744.28866666l-0.46 0.434z"  horiz-adv-x="1024" />


    <glyph glyph-name="-canshuguanli" unicode="&#58944;" d="M814.525 631.2660000000001c0-14.046-11.386-25.432-25.431-25.432-12.485 0-22.869 8.997-25.022 20.86l-0.41 4.572V764.78c0 13.905-10.145 25.44-23.437 27.609l-4.538 0.366H148.22c-13.905 0-25.44-10.145-27.609-23.437l-0.366-4.538V70.5c0-13.905 10.145-25.44 23.437-27.609l4.538-0.366h160.218c14.046 0 25.432-11.386 25.432-25.431 0-12.485-8.996-22.869-20.86-25.022l-4.572-0.41H148.22c-41.122 0-74.89 31.484-78.516 71.662l-0.322 7.176V764.781c0 41.122 31.484 74.89 71.662 78.516l7.176 0.322h587.468c41.122 0 74.891-31.484 78.516-71.662l0.322-7.176v-133.515zM602.172 656.697c14.045 0 25.431-11.386 25.431-25.431 0-12.485-8.996-22.869-20.86-25.022l-4.571-0.41H281.734c-14.045 0-25.431 11.386-25.431 25.432 0 12.484 8.996 22.868 20.86 25.021l4.571 0.41h320.438zM339.18 443.072c14.045 0 25.432-11.386 25.432-25.431 0-12.485-8.997-22.869-20.86-25.022l-4.572-0.41h-57.446c-14.045 0-25.431 11.386-25.431 25.432 0 12.484 8.996 22.868 20.86 25.021l4.571 0.41h57.446zM639.556 357.62199999999996c-73.036 0-132.244-59.207-132.244-132.244 0-73.036 59.208-132.244 132.244-132.244 73.037 0 132.244 59.208 132.244 132.244 0 73.037-59.207 132.244-132.244 132.244z m0-50.863c44.946 0 81.381-36.435 81.381-81.38 0-44.946-36.435-81.382-81.38-81.382-44.946 0-81.382 36.436-81.382 81.381 0 44.946 36.436 81.381 81.381 81.381zM833.194 477.846c28.443-17.09 37.646-54.002 20.556-82.445l-18.878-31.425a238.578 238.578 0 0 0 23.8-43.938l21.004-0.37c42.13-0.735 75.687-35.485 74.952-77.614l-0.833-47.677c-0.735-42.13-35.484-75.687-77.614-74.952l-25.117 0.437a238.733 238.733 0 0 0-24.01-38.102l12.713-22.937c20.428-36.854 7.113-83.29-29.74-103.718l-41.706-23.117c-36.853-20.428-83.289-7.113-103.717 29.74l-14.727 26.564c-13.361-0.74-26.77-0.369-40.074 1.11l-24.24-40.337c-17.09-28.443-54.001-37.646-82.444-20.556l-68.667 41.26c-28.443 17.09-37.646 54.002-20.556 82.445l24.217 40.31a238.641 238.641 0 0 0-19.844 34.893l-30.3 0.53c-42.13 0.735-75.686 35.485-74.95 77.614l0.831 47.677c0.736 42.13 35.485 75.687 77.615 74.952l26.187-0.455a238.525 238.525 0 0 0 22.413 39.062l-12.186 21.995c-20.429 36.854-7.113 83.29 29.74 103.718l41.705 23.117c36.854 20.428 83.29 7.113 103.718-29.74l10.215-18.425a241.78 241.78 0 0 0 49.926-0.364l18.899 31.452c17.09 28.443 54.002 37.646 82.445 20.556l68.667-41.26z m-26.196-43.598l-68.668 41.26a9.22 9.22 0 0 1-12.51-2.929l-0.14-0.227-18.9-31.451a50.863 50.863 0 0 0-48.625-24.416l-0.593 0.062a190.922 190.922 0 0 1-38.015 0.418l-1.406-0.13a50.863 50.863 0 0 0-49.07 25.435l-0.297 0.529-10.218 18.429c-6.742 12.162-21.98 16.633-34.203 10.114l-0.37-0.2-41.705-23.118c-12.162-6.742-16.633-21.98-10.11-34.211l0.201-0.37 12.187-21.996a50.863 50.863 0 0 0-2.624-53.533l-0.335-0.48a187.663 187.663 0 0 1-17.02-29.394l-0.616-1.34a50.863 50.863 0 0 0-46.584-29.827l-0.608 0.007-26.192 0.454c-13.903 0.243-25.394-10.717-25.86-24.563l-0.011-0.42-0.833-47.677c-0.242-13.903 10.718-25.395 24.566-25.861l0.42-0.01 30.3-0.53a50.863 50.863 0 0 0 45.033-28.99l0.248-0.53c4.2-9.09 9.131-17.849 14.766-26.207l0.851-1.25a50.863 50.863 0 0 0 1.96-54.45l-0.304-0.514-24.219-40.315c-2.576-4.288-1.258-9.83 2.925-12.513l0.23-0.137 68.666-41.26c4.288-2.576 9.83-1.258 12.51 2.93l0.142 0.226 24.24 40.338a50.863 50.863 0 0 0 48.624 24.416l0.593-0.063a190.936 190.936 0 0 1 30.135-0.955l1.508 0.078a50.863 50.863 0 0 0 47.008-25.614l0.286-0.509 14.729-26.567c6.741-12.162 21.98-16.633 34.203-10.114l0.37 0.2 41.705 23.118c12.161 6.742 16.633 21.98 10.113 34.205l-0.2 0.37-12.714 22.937a50.863 50.863 0 0 0 3.832 55.223l0.369 0.484a187.89 187.89 0 0 1 18.227 28.673l0.67 1.314a50.863 50.863 0 0 0 45.7 27.928l0.585-0.007 25.119-0.438c13.902-0.242 25.394 10.718 25.86 24.564l0.011 0.42 0.832 47.677c0.243 13.903-10.718 25.395-24.57 25.861l-0.42 0.01-21.005 0.37a50.863 50.863 0 0 0-45.885 30.888l-0.235 0.56a187.69 187.69 0 0 1-17.933 33.406l-0.796 1.17a50.863 50.863 0 0 0-1.961 54.448l0.304 0.513 18.88 31.43c2.577 4.289 1.26 9.83-2.925 12.514l-0.228 0.137z"  horiz-adv-x="1024" />


    <glyph glyph-name="-zonghechaxun" unicode="&#58943;" d="M819.25 601.475c0-14.36-11.64-26-26-26-14.216 0-25.767 11.409-25.997 25.57l-0.003 0.43V735.35c0 15.063-12.09 27.303-27.094 27.546l-0.456 0.004H150.65c-15.063 0-27.303-12.09-27.546-27.094l-0.004-0.456V39.200000000000045c0-15.063 12.09-27.303 27.094-27.546l0.456-0.004h321.3c14.36 0 26-11.64 26-26 0-14.216-11.409-25.767-25.57-26H150.65c-43.495 0-78.837 34.907-79.54 78.235l-0.01 1.315V735.35c0 43.495 34.907 78.837 78.234 79.54l1.316 0.01H739.7c43.495 0 78.837-34.907 79.54-78.234l0.01-1.316v-133.875zM605.825 627.475c14.36 0 26-11.64 26-26 0-14.216-11.409-25.767-25.57-25.997l-0.43-0.003h-321.3c-14.36 0-26 11.64-26 26 0 14.216 11.409 25.767 25.57 25.997l0.43 0.003h321.3zM364.85 413.275c14.36 0 26-11.64 26-26 0-14.216-11.409-25.767-25.57-25.997l-0.43-0.003h-80.325c-14.36 0-26 11.64-26 26 0 14.216 11.409 25.767 25.57 25.997l0.43 0.003h80.325zM364.85 199.07500000000005c14.36 0 26-11.64 26-26 0-14.216-11.409-25.767-25.57-25.997l-0.43-0.003h-80.325c-14.36 0-26 11.64-26 26 0 14.216 11.409 25.767 25.57 25.997l0.43 0.003h80.325zM491.65 444.554c-93.803-93.803-93.803-245.89 0-339.694 93.804-93.804 245.89-93.804 339.695 0 93.804 93.804 93.804 245.89 0 339.694-93.804 93.804-245.89 93.804-339.694 0z m36.77-36.77c73.497 73.498 192.658 73.498 266.155 0 73.497-73.496 73.497-192.657 0-266.154-73.497-73.497-192.658-73.497-266.155 0-73.497 73.497-73.497 192.658 0 266.155zM803.23 115.66499999999996c10.052 10.052 26.287 10.153 36.463 0.302l0.307-0.302 108.187-108.187c10.154-10.154 10.154-26.616 0-36.77-10.052-10.052-26.287-10.153-36.463-0.301l-0.307 0.301L803.23 78.89499999999998c-10.154 10.154-10.154 26.616 0 36.77z"  horiz-adv-x="1024" />


    <glyph glyph-name="-gongzuotai" unicode="&#58938;" d="M894.5 741c28.166 0 51-22.833 51-51v-510c0-28.166-22.834-51-51-51h-765c-28.167 0-51 22.834-51 51V690c0 28.167 22.833 51 51 51h765z m-1.001-51.999h-763v-508h763v508zM792.5 27.5c14.36 0 26-11.64 26-26 0-14.216-11.409-25.767-25.57-25.996l-0.43-0.004h-561c-14.36 0-26 11.64-26 26 0 14.216 11.409 25.767 25.57 25.997l0.43 0.003h561zM308 563c14.216 0 25.767-11.409 25.997-25.57l0.003-0.43v-204c0-14.36-11.64-26-26-26-14.216 0-25.767 11.409-25.997 25.57L282 333V537c0 14.36 11.64 26 26 26zM741.5 563c14.36 0 26-11.64 26-26 0-14.216-11.409-25.767-25.57-25.997l-0.43-0.003h-306c-14.36 0-26 11.64-26 26 0 14.216 11.409 25.767 25.57 25.997l0.43 0.003h306zM435.5 461c14.216 0 25.767-11.409 25.996-25.57l0.004-0.43v-102c0-14.36-11.64-26-26-26-14.216 0-25.767 11.409-25.997 25.57l-0.003 0.43V435c0 14.36 11.64 26 26 26zM588.5 461c14.216 0 25.767-11.409 25.996-25.57l0.004-0.43v-102c0-14.36-11.64-26-26-26-14.216 0-25.767 11.409-25.997 25.57l-0.003 0.43V435c0 14.36 11.64 26 26 26zM741.5 461c14.216 0 25.767-11.409 25.996-25.57l0.004-0.43v-102c0-14.36-11.64-26-26-26-14.216 0-25.767 11.409-25.997 25.57l-0.003 0.43V435c0 14.36 11.64 26 26 26z"  horiz-adv-x="1024" />


    <glyph glyph-name="-huobanzhongxin" unicode="&#58934;" d="M388.942 327.18399999999997c-104.898 0-189.935 84.991-189.935 189.834 0 104.842 85.037 189.834 189.935 189.834s189.935-84.992 189.935-189.834c0-104.843-85.037-189.834-189.935-189.834z m0 54.238c74.927 0 135.668 60.708 135.668 135.596 0 74.887-60.74 135.596-135.668 135.596-74.927 0-135.667-60.709-135.667-135.596 0-74.888 60.74-135.596 135.667-135.596zM171.874 218.707c-44.956 0-81.4-36.425-81.4-81.358 0-44.932 36.444-81.357 81.4-81.357H606.01c44.956 0 81.4 36.425 81.4 81.357 0 44.933-36.444 81.358-81.4 81.358H171.874z m0 54.238H606.01c74.927 0 135.667-60.708 135.667-135.596 0-74.887-60.74-135.595-135.667-135.595H171.874c-74.927 0-135.668 60.708-135.668 135.595 0 74.888 60.74 135.596 135.668 135.596zM470.343 110.23000000000002c-14.986 0-27.134 12.142-27.134 27.12 0 14.977 12.148 27.119 27.134 27.119h81.4c14.986 0 27.134-12.142 27.134-27.12 0-14.977-12.148-27.119-27.134-27.119h-81.4zM741.678 272.94500000000005c-14.985 0-27.133 12.142-27.133 27.12 0 14.977 12.148 27.119 27.133 27.119h111.248c74.927 0 135.667-60.709 135.667-135.596 0-74.888-60.74-135.596-135.667-135.596h-56.98c-14.986 0-27.134 12.142-27.134 27.12 0 14.977 12.148 27.118 27.133 27.118h56.98c44.957 0 81.401 36.425 81.401 81.358 0 44.932-36.444 81.357-81.4 81.357H741.678zM630.795 370.68499999999995c-14.985-0.093-27.206 11.974-27.297 26.951-0.09 14.977 11.984 27.194 26.969 27.287a137.014 137.014 0 0 1 20.593 1.693c74.005 11.721 124.5 81.184 112.785 155.15-11.715 73.965-81.204 124.424-155.209 112.703a136.932 136.932 0 0 1-21.02-5.048c-14.248-4.643-29.562 3.137-34.205 17.376-4.643 14.24 3.143 29.548 17.39 34.191a191.226 191.226 0 0 0 29.35 7.051c103.607 16.41 200.892-54.233 217.293-157.784 16.401-103.552-54.293-200.8-157.9-217.21a191.308 191.308 0 0 0-28.75-2.36z"  horiz-adv-x="1024" />


    <glyph glyph-name="-xitongguanli" unicode="&#58932;" d="M271.47 215.16700000000003c14.116 0 25.56-11.454 25.56-25.584 0-14.129-11.444-25.583-25.56-25.583H143.677C101.33 164 67 198.36199999999997 67 240.75v460.5c0 42.388 34.33 76.75 76.676 76.75h715.648C901.67 778 936 743.638 936 701.25v-136.444c0-14.13-11.443-25.584-25.559-25.584-14.116 0-25.559 11.454-25.559 25.584V701.25c0 14.13-11.443 25.583-25.558 25.583H143.676c-14.115 0-25.558-11.454-25.558-25.583v-460.5c0-14.13 11.443-25.583 25.558-25.583h127.795zM219.429 10C205.385 10 194 21.639999999999986 194 36s11.385 26 25.429 26H346.57C360.615 62 372 50.360000000000014 372 36s-11.385-26-25.429-26H219.43zM664 133c-70.692 0-128 57.308-128 128 0 70.692 57.308 128 128 128 70.692 0 128-57.308 128-128 0-70.692-57.308-128-128-128z m0 51.2c42.415 0 76.8 34.385 76.8 76.8s-34.385 76.8-76.8 76.8-76.8-34.385-76.8-76.8 34.385-76.8 76.8-76.8zM731.19 466.132c-10.295-17.133-29.621-26.703-49.477-24.5a180.261 180.261 0 0 1-37.234 0.261 51.087 51.087 0 0 0-49.615 26.095l-8.002 14.445c-6.84 12.35-22.396 16.807-34.745 9.958l-33.539-18.603c-12.349-6.85-16.814-22.412-9.973-34.76l9.893-17.86c9.512-17.17 8.352-38.278-2.985-54.314a177.386 177.386 0 0 1-16.664-29.04c-8.432-18.558-27.073-30.343-47.445-29.993l-21.414 0.368c-14.115 0.243-25.76-11.006-26.01-25.125l-0.68-38.346c-0.25-14.12 10.99-25.762 25.104-26.004l25.351-0.436a51.087 51.087 0 0 0 45.506-29.666 177.25 177.25 0 0 1 14.742-25.933c11.315-16.505 11.96-38.102 1.648-55.263l-23.194-38.602a6.391 6.391 0 0 1 2.184-8.77l65.719-39.488a6.391 6.391 0 0 1 8.769 2.19l23.211 38.629c10.294 17.133 29.62 26.703 49.476 24.5 9.92-1.101 19.922-1.376 29.89-0.821a51.087 51.087 0 0 0 47.53-26.254l12.317-22.237c6.84-12.348 22.397-16.806 34.746-9.957l33.539 18.603c12.349 6.849 16.814 22.412 9.973 34.76l-10.395 18.765c-9.881 17.838-8.216 39.85 4.237 56.01a177.586 177.586 0 0 1 17.853 28.33c8.847 17.51 26.924 28.42 46.53 28.084l20.39-0.35c14.115-0.243 25.76 11.006 26.01 25.124l0.68 38.347c0.25 14.119-10.99 25.761-25.104 26.004l-16.454 0.283a51.087 51.087 0 0 0-46.353 31.605 177.194 177.194 0 0 1-17.679 32.657c-11.315 16.505-11.96 38.101-1.648 55.263l18.081 30.091a6.391 6.391 0 0 1-2.184 8.77l-65.719 39.489a6.391 6.391 0 0 1-8.77-2.19l-18.097-30.12z m-25.716 56.445c16.367 27.238 51.702 36.06 78.924 19.703l65.719-39.487c27.221-16.357 36.021-51.698 19.655-78.936l-18.081-30.091a228.304 228.304 0 0 0 22.774-42.071l16.453-0.283c42.344-0.728 76.062-35.655 75.311-78.011l-0.68-38.347c-0.75-42.357-35.685-76.103-78.029-75.376l-20.39 0.35a228.765 228.765 0 0 0-22.995-36.49l10.395-18.765c20.522-37.045 7.126-83.734-29.92-104.282l-33.54-18.603c-37.045-20.548-83.714-7.174-104.235 29.872l-12.319 22.236c-12.791-0.711-25.627-0.36-38.363 1.054l-23.211-38.63c-16.367-27.239-51.702-36.06-78.924-19.704L468.3 16.20399999999995c-27.222 16.357-36.021 51.697-19.655 78.936l23.194 38.6a228.356 228.356 0 0 0-18.989 33.41l-25.351 0.435c-42.344 0.728-76.062 35.655-75.312 78.011l0.68 38.347c0.75 42.356 35.686 76.103 78.03 75.375l21.414-0.368a228.565 228.565 0 0 0 21.47 37.414l-9.894 17.86c-20.522 37.045-7.126 83.734 29.92 104.282l33.539 18.603c37.046 20.548 83.714 7.174 104.236-29.872l8.002-14.445a231.367 231.367 0 0 0 47.793-0.335l18.098 30.12z"  horiz-adv-x="1024" />


    <glyph glyph-name="-tuichu" unicode="&#58931;" d="M521 383c-17.998 0-32 14.035-32 32.074V791.928C489 809.97 503.002 824 521 824c18.002 0 32-14.03 32-32.072v-376.854C553 397.035 539.002 383 521 383z m-10.166-440c-109.995 0-217.993 42.024-297.991 118.07-38 36.022-67.996 80.05-89.996 130.077-47.998 112.067-44 240.144 16 346.212 29.996 56.031 73.996 106.063 127.995 142.083 13.998 10.006 35.999 6.004 45.997-8.007 10.004-14.007 8.002-34.017-5.996-44.023h-2.001c-44-30.021-82-72.045-107.998-120.074-25.998-48.03-39.997-104.06-39.997-158.094 0-92.057 35.998-178.108 103.995-242.146 67.997-64.039 157.998-100.06 251.993-100.06 93.996 0 183.997 36.021 251.994 100.06 65.994 64.038 103.994 150.09 103.994 242.146 0 56.032-13.998 110.064-39.997 158.094-25.998 48.029-63.997 88.055-107.997 120.074-13.999 10.006-18.001 28.013-7.999 42.025 10 14.006 32 18.008 45.998 8.002 53.998-36.02 95.997-86.052 127.996-142.084 57.997-106.062 63.998-234.14 16-346.207-22-48.029-51.998-92.056-89.998-130.08-37.999-38.023-83.996-66.04-133.996-88.05C622.83-46.99599999999998 566.834-57 510.834-57z"  horiz-adv-x="1024" />


    <glyph glyph-name="-shoujichongzhi" unicode="&#58927;" d="M486.4 319.32000000000005l-8.425 13.48H377.6c-14.138 0-25.6 11.462-25.6 25.6 0 14.138 11.462 25.6 25.6 25.6h68.375l-52.997 84.795c-7.493 11.99-3.848 27.784 8.141 35.277 11.99 7.493 27.783 3.849 35.277-8.14L506.353 384h11.294l69.957 111.931c7.494 11.99 23.288 15.634 35.277 8.141 11.99-7.493 15.634-23.287 8.14-35.277L578.026 384H646.4c14.138 0 25.6-11.462 25.6-25.6 0-14.138-11.462-25.6-25.6-25.6H546.025l-8.425-13.48v-44.908h91.176c14.138 0 25.6-11.461 25.6-25.6 0-14.138-11.462-25.6-25.6-25.6H537.6v-91.175c0-14.139-11.462-25.6-25.6-25.6-14.138 0-25.6 11.461-25.6 25.6v91.175h-91.176c-14.138 0-25.6 11.462-25.6 25.6 0 14.139 11.462 25.6 25.6 25.6H486.4v44.909zM793.6 793.6H230.4v-819.2h563.2V793.6z m51.2 0v-819.2c0-28.277-22.923-51.2-51.2-51.2H230.4c-28.277 0-51.2 22.923-51.2 51.2V793.6c0 28.277 22.923 51.2 51.2 51.2h563.2c28.277 0 51.2-22.923 51.2-51.2z m-409.6-128c-14.138 0-25.6 11.462-25.6 25.6 0 14.138 11.462 25.6 25.6 25.6h153.6c14.138 0 25.6-11.462 25.6-25.6 0-14.138-11.462-25.6-25.6-25.6H435.2z"  horiz-adv-x="1024" />


    <glyph glyph-name="-zhifuzhongxin" unicode="&#58926;" d="M486.4 348.31100000000004l-2.707 4.4H355.2c-14.138 0-25.6 11.462-25.6 25.6 0 14.139 11.462 25.6 25.6 25.6h96.993l-73.997 120.274c-7.409 12.042-3.652 27.81 8.39 35.219 12.041 7.409 27.81 3.652 35.218-8.39L512 404.41l90.196 146.605c7.409 12.041 23.177 15.798 35.219 8.389 12.041-7.409 15.798-23.177 8.389-35.219l-73.997-120.274H668.8c14.138 0 25.6-11.461 25.6-25.6 0-14.138-11.462-25.6-25.6-25.6H540.307l-2.707-4.4v-58.178h108.8c14.138 0 25.6-11.461 25.6-25.6 0-14.138-11.462-25.6-25.6-25.6H537.6V128c0-14.138-11.462-25.6-25.6-25.6-14.138 0-25.6 11.462-25.6 25.6V238.933H377.6c-14.138 0-25.6 11.462-25.6 25.6 0 14.139 11.462 25.6 25.6 25.6h108.8v58.178zM732.554 716.8c-14.139 0-25.6 11.462-25.6 25.6 0 14.138 11.461 25.6 25.6 25.6h82.708C859.446 768 896 734.057 896 691.2v-665.6c0-42.857-36.554-76.8-80.738-76.8H208.738c-44.184 0-80.738 33.943-80.738 76.8V691.2c0 42.857 36.554 76.8 80.738 76.8h82.708c14.139 0 25.6-11.462 25.6-25.6 0-14.138-11.461-25.6-25.6-25.6h-82.708c-16.72 0-29.538-11.903-29.538-25.6v-665.6c0-13.697 12.818-25.6 29.538-25.6h606.524c16.72 0 29.538 11.903 29.538 25.6V691.2c0 13.697-12.818 25.6-29.538 25.6h-82.708zM409.6 768v-51.2h204.8V768H409.6z m0 51.2h204.8c28.277 0 51.2-22.923 51.2-51.2v-51.2c0-28.277-22.923-51.2-51.2-51.2H409.6c-28.277 0-51.2 22.923-51.2 51.2V768c0 28.277 22.923 51.2 51.2 51.2z"  horiz-adv-x="1024" />


    <glyph glyph-name="-quanping" unicode="&#58922;" d="M696.686 216.20000000000005c8.729 2.673 18.609 0.557 25.514-6.348L843.402 88.64999999999998V205.553c0 14.079 11.413 25.492 25.492 25.492 14.08 0 25.493-11.413 25.493-25.492v-133.835c0-38.718-31.387-70.105-70.105-70.105H690.447c-14.079 0-25.492 11.414-25.492 25.493 0 14.079 11.413 25.492 25.492 25.492H807.35L686.148 173.79999999999995c-6.905 6.905-9.02 16.785-6.348 25.514-7.746-4.75-16.859-7.488-26.611-7.488H370.81c-9.752 0-18.865 2.738-26.611 7.488 2.673-8.729 0.557-18.609-6.348-25.514L216.65 52.597999999999956h116.903c14.079 0 25.492-11.413 25.492-25.492 0-14.08-11.413-25.493-25.492-25.493H199.718c-38.718 0-70.105 31.387-70.105 70.105V205.553c0 14.079 11.414 25.492 25.493 25.492 14.079 0 25.492-11.413 25.492-25.492V88.64999999999998L301.8 209.85199999999998c6.905 6.905 16.785 9.02 25.514 6.348-4.75 7.746-7.488 16.859-7.488 26.611V525.19c0 9.752 2.738 18.865 7.488 26.611-8.729-2.673-18.609-0.557-25.514 6.348L180.598 679.35v-116.903c0-14.079-11.413-25.492-25.492-25.492-14.08 0-25.493 11.413-25.493 25.492V696.282c0 38.718 31.387 70.105 70.105 70.105h133.835c14.079 0 25.492-11.414 25.492-25.493 0-14.079-11.413-25.492-25.492-25.492H216.65L337.852 594.2c6.905-6.905 9.02-16.785 6.348-25.514 7.746 4.75 16.859 7.488 26.611 7.488H653.19c9.752 0 18.865-2.738 26.611-7.488-2.673 8.729-0.557 18.609 6.348 25.514L807.35 715.402H690.447c-14.079 0-25.492 11.413-25.492 25.492 0 14.08 11.413 25.493 25.492 25.493h133.835c38.718 0 70.105-31.387 70.105-70.105v-133.835c0-14.079-11.414-25.492-25.493-25.492-14.079 0-25.492 11.413-25.492 25.492V679.35L722.2 558.148c-6.905-6.905-16.785-9.02-25.514-6.348 4.75-7.746 7.488-16.859 7.488-26.611V242.80999999999995c0-9.752-2.738-18.865-7.488-26.611zM370.811 525.1890000000001V242.80999999999995H653.19V525.19H370.81z"  horiz-adv-x="1024" />


    <glyph glyph-name="-huanfu" unicode="&#58924;" d="M704.694 744.38l-53.2-53.201H372.292l-53.128 53.128L80.668 505.811l122.021-121.37h57.075v-359.988h509.849V384.436l51.553 0.004L943.19 505.883 704.694 744.38zM208.78 333.16700000000003h-12.18a50.767 50.767 0 0 0-29.962 14.57L44.617 469.76c-19.912 19.91-19.912 52.193 0 72.104l238.495 238.496c19.911 19.91 52.193 19.91 72.104 0l38.195-38.195h236.964l38.267 38.267c19.911 19.911 52.193 19.911 72.104 0l238.496-238.496c19.911-19.91 19.911-52.193 0-72.104l-122.021-122.02c-9.81-9.81-22.623-14.788-35.48-14.93h-1.143c-0.126-33.991-0.126-50.987 0-50.987v-257.44c0-28.159-22.827-50.986-50.985-50.986h-509.85c-28.157 0-50.984 22.827-50.984 50.985V333.16700000000003z"  horiz-adv-x="1024" />


    <glyph glyph-name="-chanpinzhongxin" unicode="&#58909;" d="M278.756 470.635l-137.376 85.86v-386.473l342.176-197.555V342.635l-147.912 92.444V256c0-15.71-12.735-28.444-28.444-28.444-15.71 0-28.444 12.735-28.444 28.444V470.635zM655.97 728.8340000000001L512 811.955 162.674 610.2719999999999l144.83-90.518 348.466 209.08z m55.472-32.027a28.498 28.498 0 0 0-5.607-4.398L361.66 485.905 512 391.943l349.326 218.329-149.884 86.535z m-170.998-724.34L882.62 170.02200000000005V556.494l-342.176-213.86v-370.167zM939.51 607.7280000000001v-447.456a40 40 0 0 0-20-34.641L532-98.09799999999996a40 40 0 0 0-40 0L104.491 125.63099999999997a40 40 0 0 0-20 34.64V607.729a40 40 0 0 0 20 34.641L492 866.098a40 40 0 0 0 40 0l387.509-223.729a40 40 0 0 0 20-34.64z"  horiz-adv-x="1024" />


    <glyph glyph-name="-cunkuan" unicode="&#58910;" d="M409.6 496.911c-100.54 0-182.044 81.504-182.044 182.045C227.556 779.496 309.06 861 409.6 861s182.044-81.504 182.044-182.044S510.14 496.91 409.6 496.91z m0 56.889c69.122 0 125.156 56.034 125.156 125.156 0 69.121-56.034 125.155-125.156 125.155-69.122 0-125.156-56.034-125.156-125.155 0-69.122 56.034-125.156 125.156-125.156z m270.545 83.144c-7.045-14.042-24.138-19.714-38.18-12.67-14.041 7.044-19.714 24.137-12.67 38.179C658.881 721.427 699.52 733 792.32 733c17.963 0 31.428-16.444 27.886-34.054-4.663-23.18-11.584-46.255-21.388-72.813-3.712-10.055-7.755-20.417-12.944-33.295-0.88-2.184-2.654-6.554-4.648-11.46 58.557-32.267 91.112-81.921 115.96-177.52h60.254c15.71 0 28.444-12.736 28.444-28.445v-169.835c0-13.545-9.55-25.21-22.83-27.885l-94.441-19.016c-22.446-56.7-57.579-93.099-109.448-120.7-1.39-4.305-3.03-10.41-4.843-18.163-4.612-19.72-10.128-49.073-16.493-87.864-2.256-13.748-14.137-23.839-28.069-23.839H599.68a28.444 28.444 0 0 0-27.057 19.67c-10.372 31.98-19.538 55.683-27.238 70.732-2.025 3.96-3.862 7.14-5.408 9.482h-95.44c-1.78-2.584-3.91-6.057-6.3-10.353-8.561-15.393-19.402-39.377-32.306-71.647a28.444 28.444 0 0 0-26.411-17.884H269.44c-13.711 0-25.471 9.782-27.969 23.263-13.219 71.36-29.413 111.711-39.758 116.866C95.721 101.05999999999995 48.356 203.34400000000005 48.356 320.55600000000004c0 104.29 37.942 198.034 122.88 254.686 13.068 8.717 30.73 5.189 39.446-7.88 8.717-13.07 5.189-30.73-7.88-39.448-66.895-44.617-97.558-120.376-97.558-207.358 0-97.646 37.947-179.59 121.843-221.4 30.206-15.052 49.9-58.718 65.74-134.156h67.517c29.897 72.874 46.93 99.884 74.733 99.884h113.502c30.166 0 47.715-29.505 71.638-99.884h65.431c14.433 85.654 21.558 110.495 40.116 119.759 48.285 24.102 76.678 54.026 94.62 107.676a28.444 28.444 0 0 0 21.361 18.862l87.25 17.57V346.967H874.88c-13.232 0-24.716 9.124-27.708 22.013-24.997 107.694-52.268 146.19-113.462 172.264-14.246 6.07-21.019 22.42-15.24 36.785l1.187 2.943c2.076 5.142 11.105 27.305 13.45 33.126 4.998 12.404 8.853 22.282 12.343 31.736 3.834 10.387 7.153 20.094 10.01 29.381-44.324-2.674-62.19-12.108-75.315-38.272z m-20.234-305.01c-25.135 0-45.511 20.375-45.511 45.51 0 25.136 20.376 45.512 45.511 45.512s45.511-20.376 45.511-45.512c0-25.135-20.376-45.51-45.51-45.51z"  horiz-adv-x="1024" />


    <glyph glyph-name="-daikuanguanli" unicode="&#58911;" d="M512 355.55600000000004c-128.817 0-233.244 104.427-233.244 233.244S383.183 822.044 512 822.044 745.244 717.617 745.244 588.8 640.817 355.55600000000004 512 355.55600000000004z m0 56.888c97.398 0 176.356 78.958 176.356 176.356S609.398 765.156 512 765.156 335.644 686.198 335.644 588.8 414.602 412.444 512 412.444z m335.032-105.5c0.636 0.264 0.636 0.264 1.275 0.521 49.43 19.773 105.53-4.27 125.303-53.701l4.981-12.453c17.202-43.004-3.043-91.88-45.616-110.125L507.963-50.96199999999999a199.111 199.111 0 0 0-145.402-4.5l-257.573 91.99c-33.962 12.13-56.632 44.3-56.632 80.363V224.71000000000004c0 47.128 38.205 85.333 85.333 85.333H557.51c47.128 0 85.333-38.205 85.333-85.333v-2.844l204.188 85.078z m-289.52-181.788H409.6c-15.71 0-28.444 12.735-28.444 28.444 0 15.71 12.735 28.444 28.444 28.444h147.911c15.71 0 28.445 12.735 28.445 28.445V224.71000000000004c0 15.71-12.735 28.445-28.445 28.445H133.69c-15.71 0-28.445-12.735-28.445-28.445v-107.82a28.444 28.444 0 0 1 18.878-26.788l257.573-91.99a142.222 142.222 0 0 1 103.859 3.214l425.012 182.148c14.19 6.082 20.939 22.373 15.205 36.708l-4.981 12.453c-8.104 20.259-31.096 30.113-51.355 22.01-0.262-0.106-0.262-0.106-0.523-0.214L625.34 152.94399999999996a28.513 28.513 0 0 0-6.565-1.857c-15.51-15.992-37.226-25.931-61.264-25.931z"  horiz-adv-x="1024" />


    <glyph glyph-name="-edu" unicode="&#58912;" d="M483.556 375.842l-3.321 5.314H332.8c-15.71 0-28.444 12.735-28.444 28.444 0 15.71 12.735 28.444 28.444 28.444h111.88l-84.8 135.68c-8.327 13.322-4.277 30.87 9.044 39.197 13.322 8.326 30.87 4.276 39.197-9.045l103.644-165.832h0.47l103.644 165.832c8.326 13.321 25.875 17.37 39.197 9.045 13.321-8.326 17.37-25.875 9.045-39.197l-84.8-135.68H691.2c15.71 0 28.444-12.735 28.444-28.444 0-15.71-12.735-28.444-28.444-28.444H543.765l-3.32-5.314v-65.798H665.6c15.71 0 28.444-12.735 28.444-28.444 0-15.71-12.735-28.444-28.444-28.444H540.444V128c0-15.71-12.735-28.444-28.444-28.444-15.71 0-28.444 12.735-28.444 28.444V253.15599999999995H358.4c-15.71 0-28.444 12.735-28.444 28.444 0 15.71 12.735 28.444 28.444 28.444h125.156v65.798zM512-54.04399999999998C270.075-54.04399999999998 73.956 142.07500000000005 73.956 384 73.956 625.925 270.075 822.044 512 822.044c241.925 0 438.044-196.119 438.044-438.044 0-241.925-196.119-438.044-438.044-438.044z m0 56.888c210.506 0 381.156 170.65 381.156 381.156S722.506 765.156 512 765.156 130.844 594.506 130.844 384 301.494 2.844000000000051 512 2.844000000000051z"  horiz-adv-x="1024" />


    <glyph glyph-name="-gonggongguanli" unicode="&#58913;" d="M512 218.54499999999996c-91.378 0-165.455 74.077-165.455 165.455 0 91.378 74.077 165.455 165.455 165.455 91.378 0 165.455-74.077 165.455-165.455 0-91.378-74.077-165.455-165.455-165.455z m0 50.91c63.262 0 114.545 51.283 114.545 114.545S575.262 498.545 512 498.545 397.455 447.262 397.455 384 448.738 269.45500000000004 512 269.45500000000004z m-80.393 418.381a50.91 50.91 0 0 0-30.69-46.722 279.768 279.768 0 0 1-59.763-35.257 50.91 50.91 0 0 0-56.55-3.78l-30.149 17.407c-12.175 7.029-27.742 2.858-34.771-9.317l-54.939-95.156c-7.029-12.174-2.857-27.742 9.317-34.771l34.058-19.663a50.91 50.91 0 0 0 25.215-49.026A284.002 284.002 0 0 1 232 384c0-12.512 0.817-24.908 2.435-37.139a50.91 50.91 0 0 0-25.014-50.765l-35.359-20.414c-12.174-7.03-16.346-22.597-9.317-34.772l54.939-95.155c7.029-12.175 22.596-16.346 34.771-9.317l39.287 22.682a50.91 50.91 0 0 0 55.149-2.737 279.523 279.523 0 0 1 52.025-29.497 50.91 50.91 0 0 0 30.691-46.722v-40.132c0-14.058 11.397-25.454 25.455-25.454h109.876c14.058 0 25.455 11.396 25.455 25.454v40.132a50.91 50.91 0 0 0 30.69 46.722 279.523 279.523 0 0 1 52.026 29.497 50.91 50.91 0 0 0 55.15 2.737l39.286-22.682c12.175-7.03 27.742-2.858 34.771 9.317l54.939 95.155c7.029 12.175 2.857 27.743-9.317 34.772l-35.359 20.414a50.91 50.91 0 0 0-25.014 50.765A283.071 283.071 0 0 1 792 384c0 9.253-0.447 18.443-1.335 27.55a50.91 50.91 0 0 0 25.215 49.027l34.058 19.663c12.174 7.029 16.346 22.597 9.317 34.771l-54.939 95.156c-7.029 12.175-22.596 16.346-34.771 9.317l-30.149-17.406a50.91 50.91 0 0 0-56.55 3.78 279.768 279.768 0 0 1-59.762 35.256 50.91 50.91 0 0 0-30.691 46.722v39.8c0 14.059-11.397 25.455-25.455 25.455H457.062c-14.058 0-25.455-11.396-25.455-25.455v-39.8z m-50.909 0v39.8c0 42.175 34.19 76.364 76.364 76.364h109.876c42.175 0 76.364-34.19 76.364-76.364v-39.8a330.68 330.68 0 0 0 70.64-41.67l30.148 17.407c36.525 21.087 83.228 8.573 104.315-27.952l54.938-95.155c21.087-36.524 8.573-83.228-27.95-104.315l-34.058-19.663A334.91 334.91 0 0 0 842.909 384c0-14.854-0.979-29.48-2.875-43.815l35.358-20.414c36.524-21.088 49.038-67.79 27.951-104.315L848.405 120.29999999999995c-21.087-36.524-67.79-49.038-104.315-27.95l-39.286 22.681a330.435 330.435 0 0 0-61.502-34.867v-40.132c0-42.174-34.19-76.363-76.364-76.363H457.062c-42.175 0-76.364 34.189-76.364 76.363v40.132a330.435 330.435 0 0 0-61.502 34.867L279.91 92.35000000000002c-36.525-21.087-83.228-8.573-104.315 27.951l-54.938 95.156c-21.087 36.524-8.573 83.227 27.95 104.315l35.36 20.414A333.98 333.98 0 0 0 181.09 384c0 10.962 0.533 21.8 1.574 32.488l-34.057 19.663c-36.524 21.087-49.038 67.79-27.951 104.315l54.938 95.155c21.087 36.525 67.79 49.039 104.315 27.952l30.148-17.407a330.68 330.68 0 0 0 70.64 41.67z"  horiz-adv-x="1024" />


    <glyph glyph-name="-guimianyewu" unicode="&#58914;" d="M133.689 685.511V184.89H890.31V685.51H133.69z m0 56.889H890.31c31.419 0 56.889-25.47 56.889-56.889V184.89c0-31.419-25.47-56.889-56.889-56.889H133.69C102.27 128 76.8 153.47000000000003 76.8 184.889V685.51c0 31.419 25.47 56.889 56.889 56.889zM230.4-28.44399999999996c-15.71 0-28.444 12.735-28.444 28.444 0 15.71 12.735 28.444 28.444 28.444h563.2c15.71 0 28.444-12.735 28.444-28.444 0-15.71-12.735-28.444-28.444-28.444H230.4z m204.8 478.417L324.97 361.78999999999996c-12.268-9.814-30.168-7.825-39.981 4.442-9.814 12.267-7.825 30.167 4.442 39.98l128 102.4c10.388 8.311 25.15 8.311 35.538 0l108.12-86.496 135.598 135.598c11.108 11.109 29.118 11.109 40.226 0 11.109-11.108 11.109-29.118 0-40.226l-153.6-153.6c-10.248-10.249-26.564-11.153-37.882-2.098L435.2 449.973z"  horiz-adv-x="1024" />


    <glyph glyph-name="-juecezhongxin" unicode="&#58915;" d="M386.545 757.81c-3.71 18.101 1.456 37.66 15.5 51.703l28.158 28.159c22.217 22.216 58.237 22.216 80.453 0l209.178-209.178c22.216-22.217 22.216-58.237 0-80.453l-28.159-28.159c-14.043-14.043-33.601-19.21-51.703-15.5L578.27 442.68a57.164 57.164 0 0 0 8.654-7.11l317.79-317.79c22.216-22.216 22.216-58.236 0-80.453l-28.159-28.158c-22.216-22.217-58.236-22.217-80.453 0l-317.79 317.789a57.164 57.164 0 0 0-7.11 8.654l-61.703-61.703c3.71-18.101-1.456-37.66-15.499-51.703l-28.158-28.159c-22.217-22.216-58.237-22.216-80.453 0L76.21 403.225c-22.217 22.217-22.217 58.237 0 80.453l28.158 28.159c14.043 14.043 33.602 19.21 51.703 15.499L386.545 757.81zM128-28.44399999999996c-15.71 0-28.444 12.735-28.444 28.444 0 15.71 12.735 28.444 28.444 28.444h484.36c15.71 0 28.444-12.735 28.444-28.444 0-15.71-12.735-28.444-28.444-28.444H128z m251.92 353.227l209.178 209.178-172.974 172.974-209.178-209.178L379.92 324.783z m138.618 42.402l317.79-317.79 28.158 28.159-317.79 317.79-28.158-28.16z m-402.102 76.267l209.178-209.178 28.159 28.158L144.595 471.61l-28.159-28.158z m325.835 325.834L651.449 560.11l28.158 28.158L470.43 797.4449999999999l-28.159-28.159z"  horiz-adv-x="1024" />


    <glyph glyph-name="-leixinyongka" unicode="&#942666;" d="M602.063 293.34400000000005c-11.476 7.102-24.84 11.012-38.863 11.012-40.845 0-73.956-33.111-73.956-73.956 0-40.845 33.111-73.956 73.956-73.956 14.018 0 27.38 3.904 38.862 11.012-10.266 18.675-16.106 40.128-16.106 62.944 0 22.817 5.84 44.27 16.107 62.944z m37.94-168.891c-21.998-15.972-48.704-24.897-76.803-24.897-72.263 0-130.844 58.58-130.844 130.844 0 72.263 58.58 130.844 130.844 130.844 28.118 0 54.824-8.94 76.803-24.896 21.568 15.66 48.104 24.896 76.797 24.896 72.263 0 130.844-58.58 130.844-130.844 0-72.263-58.58-130.844-130.844-130.844-28.693 0-55.23 9.235-76.798 24.897zM870.4 588.8h45.511c31.419 0 56.889-25.47 56.889-56.889V31.289999999999964c0-31.419-25.47-56.889-56.889-56.889H210.49c-31.419 0-56.889 25.47-56.889 56.889V128h-43.886C77.398 128 51.2 155.50800000000004 51.2 189.44000000000005V680.96c0 33.932 26.198 61.44 58.514 61.44h702.172c32.316 0 58.514-27.508 58.514-61.44v-92.16z m-56.889 0v92.16c0 3.118-1.365 4.551-1.625 4.551H109.714c-0.26 0-1.625-1.433-1.625-4.551v-491.52c0-3.118 1.365-4.551 1.625-4.551H153.6V531.9100000000001c0 31.419 25.47 56.889 56.889 56.889H813.51zM210.49 531.9110000000001V31.289999999999964H915.91V531.9100000000001H210.49zM716.8 156.44399999999996c40.845 0 73.956 33.111 73.956 73.956 0 40.845-33.111 73.956-73.956 73.956-40.845 0-73.956-33.111-73.956-73.956 0-40.845 33.111-73.956 73.956-73.956z"  horiz-adv-x="1024" />


    <glyph glyph-name="-rizhizhongxin" unicode="&#58917;" d="M772.184 175.111h-135.54c-12.567 0-22.755-10.188-22.755-22.755v-152.267h0.775l157.52 175.022zM813.51 232V756.711H210.49V0.09000000000003183H557V152.356C557 196.34199999999998 592.658 232 636.644 232h176.867z m51.755-38.505L645.959-50.178999999999974a20 20 0 0 0-14.866-6.621H210.489c-31.419 0-56.889 25.47-56.889 56.889V756.71c0 31.419 25.47 56.889 56.889 56.889H813.51c31.419 0 56.889-25.47 56.889-56.889v-549.836a20 20 0 0 0-5.134-13.38zM332.8 554.755c-15.71 0-28.444 12.736-28.444 28.445 0 15.71 12.735 28.444 28.444 28.444h358.4c15.71 0 28.444-12.735 28.444-28.444 0-15.71-12.735-28.444-28.444-28.444H332.8z m0-204.8c-15.71 0-28.444 12.736-28.444 28.445 0 15.71 12.735 28.444 28.444 28.444h358.4c15.71 0 28.444-12.735 28.444-28.444 0-15.71-12.735-28.444-28.444-28.444H332.8z m0-204.8c-15.71 0-28.444 12.736-28.444 28.445 0 15.71 12.735 28.444 28.444 28.444h153.6c15.71 0 28.444-12.735 28.444-28.444 0-15.71-12.735-28.444-28.444-28.444H332.8z"  horiz-adv-x="1024" />


    <glyph glyph-name="-shenhezhongxin" unicode="&#58918;" d="M417.791 486.697l10.653-8.54v-131.975l-182.519-47.408c-37.618-9.77-63.88-43.727-63.88-82.593v-69.737h659.91v69.737c0 38.866-26.262 72.822-63.88 82.593l-182.52 47.408V478.157l10.654 8.54c35.51 28.466 56.547 71.327 56.547 117.703 0 83.26-67.496 150.756-150.756 150.756S361.244 687.66 361.244 604.4c0-46.376 21.037-89.237 56.547-117.703z m-46.235-35.245c-42.376 38.905-67.2 93.912-67.2 152.948 0 114.679 92.965 207.644 207.644 207.644S719.644 719.08 719.644 604.4c0-59.036-24.824-114.043-67.2-152.948v-61.27l139.933-36.346c62.696-16.285 106.467-72.878 106.467-137.655v-69.737c0-31.418-25.47-56.888-56.888-56.888H182.044c-31.418 0-56.888 25.47-56.888 56.888v69.737c0 64.777 43.771 121.37 106.467 137.655l139.933 36.346v61.27zM153.6-12.844000000000051c-15.71 0-28.444 12.735-28.444 28.444 0 15.71 12.735 28.444 28.444 28.444h716.8c15.71 0 28.444-12.735 28.444-28.444 0-15.71-12.735-28.444-28.444-28.444H153.6z"  horiz-adv-x="1024" />


    <glyph glyph-name="-shouye" unicode="&#58919;" d="M210.489 408.612V55.89999999999998c0-31.42 25.47-56.89 56.889-56.89H378.31V192.43499999999995c0 62.838 50.94 113.778 113.778 113.778h39.822c62.838 0 113.778-50.94 113.778-113.778v-193.422h110.933c31.42 0 56.89 25.47 56.89 56.889V408.61h85.109c3.206 0 6.263 1.353 8.419 3.725 4.227 4.65 3.884 11.846-0.766 16.072L550.268 752.0509999999999c-21.699 19.726-54.837 19.726-76.536 0L117.726 428.408A11.378 11.378 0 0 1 114 419.99c0-6.284 5.094-11.378 11.378-11.378h85.11z m659.911-56.89v-295.821c0-62.838-50.94-113.778-113.778-113.778H645.69c-31.419 0-56.889 25.47-56.889 56.889V192.43399999999997c0 31.419-25.47 56.889-56.889 56.889H492.09c-31.419 0-56.889-25.47-56.889-56.889v-193.422c0-31.42-25.47-56.89-56.889-56.89H267.378c-62.838 0-113.778 50.941-113.778 113.779V351.72299999999996h-28.221c-37.703 0-68.267 30.564-68.267 68.267a68.267 68.267 0 0 0 22.346 50.513l356.007 323.642c43.397 39.453 109.673 39.453 153.07 0l356.007-323.642c27.898-25.362 29.954-68.537 4.592-96.435a68.267 68.267 0 0 0-50.513-22.345H870.4z"  horiz-adv-x="1024" />


    <glyph glyph-name="-yingxiaozhongxin" unicode="&#58920;" d="M898.844 355.03599999999994V25.600000000000023c0-58.125-47.12-105.244-105.244-105.244H637.156c-21.994 0-39.823 17.829-39.823 39.822V156.44399999999996H426.667v-196.266c0-21.993-17.83-39.822-39.823-39.822H230.4c-58.125 0-105.244 47.12-105.244 105.244V355.03599999999994C80.818 381.975 51.2 430.729 51.2 486.4c0 53.472 27.324 100.562 68.77 128.07l20.733 90.705C152.528 756.91 198.55 793.6 251.62 793.6h520.76c53.07 0 99.092-36.69 110.917-88.425l20.733-90.705c41.446-27.508 68.77-74.598 68.77-128.07 0-55.671-29.618-104.425-73.956-131.364z m-56.888-20.562A154.842 154.842 0 0 0 819.2 332.79999999999995c-37.242 0-71.39 13.254-97.98 35.303-29.83-22.18-66.792-35.303-106.82-35.303-38.074 0-73.374 11.874-102.4 32.12-29.026-20.246-64.326-32.12-102.4-32.12-40.028 0-76.99 13.124-106.82 35.303-26.59-22.049-60.738-35.303-97.98-35.303-7.732 0-15.33 0.571-22.756 1.674V25.600000000000023c0-26.706 21.65-48.356 48.356-48.356h139.378V173.51099999999997c0 21.993 17.829 39.822 39.822 39.822h204.8c21.993 0 39.822-17.829 39.822-39.822v-196.267H793.6c26.706 0 48.356 21.65 48.356 48.356V334.47400000000005z m30.615 232.597l-18.936 12.568-25.796 112.86c-5.913 25.867-28.924 44.212-55.459 44.212H251.62c-26.535 0-49.546-18.345-55.459-44.213l-25.796-112.86-18.936-12.567c-26.899-17.853-43.34-47.822-43.34-80.671 0-53.412 43.299-96.711 96.711-96.711 22.899 0 44.43 7.912 61.668 22.207l34.398 28.522 35.859-26.663c20.927-15.56 46.182-24.066 72.875-24.066 25.407 0 49.511 7.701 69.854 21.89L512 434.281l32.546-22.702c20.343-14.189 44.447-21.89 69.854-21.89 26.693 0 51.948 8.506 72.875 24.066l35.859 26.663 34.398-28.522c17.239-14.295 38.77-22.207 61.668-22.207 53.412 0 96.711 43.299 96.711 96.711 0 32.849-16.441 62.818-43.34 80.671z"  horiz-adv-x="1024" />


    <glyph glyph-name="-yonghuzhongxin" unicode="&#58921;" d="M512 355.55600000000004c-128.817 0-233.244 104.427-233.244 233.244S383.183 822.044 512 822.044 745.244 717.617 745.244 588.8 640.817 355.55600000000004 512 355.55600000000004z m0 56.888c97.398 0 176.356 78.958 176.356 176.356S609.398 765.156 512 765.156 335.644 686.198 335.644 588.8 414.602 412.444 512 412.444zM256 224.711c-53.412 0-96.711-43.299-96.711-96.711s43.299-96.711 96.711-96.711h512c53.412 0 96.711 43.299 96.711 96.711S821.412 224.711 768 224.711H256z m0 56.889h512c84.83 0 153.6-68.77 153.6-153.6S852.83-25.600000000000023 768-25.600000000000023H256c-84.83 0-153.6 68.77-153.6 153.6S171.17 281.6 256 281.6z m384-182.044c-15.71 0-28.444 12.735-28.444 28.444 0 15.71 12.735 28.444 28.444 28.444h102.4c15.71 0 28.444-12.735 28.444-28.444 0-15.71-12.735-28.444-28.444-28.444H640z"  horiz-adv-x="1024" />

    <glyph glyph-name="-cuishouzhongxin" unicode="&#58921;" d="M512 355.55600000000004c-128.817 0-233.244 104.427-233.244 233.244S383.183 822.044 512 822.044 745.244 717.617 745.244 588.8 640.817 355.55600000000004 512 355.55600000000004z m0 56.888c97.398 0 176.356 78.958 176.356 176.356S609.398 765.156 512 765.156 335.644 686.198 335.644 588.8 414.602 412.444 512 412.444zM256 224.711c-53.412 0-96.711-43.299-96.711-96.711s43.299-96.711 96.711-96.711h512c53.412 0 96.711 43.299 96.711 96.711S821.412 224.711 768 224.711H256z m0 56.889h512c84.83 0 153.6-68.77 153.6-153.6S852.83-25.600000000000023 768-25.600000000000023H256c-84.83 0-153.6 68.77-153.6 153.6S171.17 281.6 256 281.6z m384-182.044c-15.71 0-28.444 12.735-28.444 28.444 0 15.71 12.735 28.444 28.444 28.444h102.4c15.71 0 28.444-12.735 28.444-28.444 0-15.71-12.735-28.444-28.444-28.444H640z"  horiz-adv-x="1024" />




</font>
</defs>
</svg>
